<svg width="971" height="834" viewBox="0 0 971 834" fill="none" xmlns="http://www.w3.org/2000/svg">
<path opacity="0.42" d="M969.23 405.72L969.87 405.5L880.29 148.61L665.53 223.19L665.52 0H393.09V219.41L183.28 149.59L95.72 407.9L311.56 479.73L169.07 663.68L382.26 833.5L531.71 642.32L664.34 827.84L887.5 671.37L752.02 481.88L970.09 406.15L969.87 405.5L969.23 405.72L969.01 405.08L749.87 481.2L885.61 671.04L664.66 825.96L531.76 640.07L382.03 831.59L170.95 663.45L313.79 479.04L97.43 407.04L184.13 151.3L394.44 221.29V1.3501H664.17L664.18 225.09L879.46 150.33L968.59 405.94L969.23 405.72L969.01 405.08L969.23 405.72Z" fill="#F2EFEE"/>
<path opacity="0.42" d="M941.88 405.72L942.52 405.5L852.94 148.61L638.18 223.19L638.17 0H365.74V219.41L155.94 149.59L68.3701 407.9L284.21 479.73L141.72 663.68L354.91 833.5L504.36 642.32L636.99 827.84L860.16 671.37L724.67 481.88L942.74 406.15L942.52 405.5L941.88 405.72L941.66 405.08L722.52 481.2L858.27 671.04L637.31 825.96L504.41 640.07L354.69 831.59L143.61 663.45L286.45 479.04L70.0801 407.04L156.78 151.3L367.09 221.29V1.3501H636.82L636.83 225.09L852.11 150.33L941.24 405.94L941.88 405.72L941.66 405.08L941.88 405.72Z" fill="#F2EFEE"/>
<path opacity="0.42" d="M907.7 405.72L908.34 405.5L818.76 148.61L604 223.19L603.99 0H331.56V219.41L121.75 149.59L34.1899 407.9L250.03 479.73L107.54 663.68L320.73 833.5L470.18 642.32L602.81 827.83L825.97 671.37L690.49 481.88L908.56 406.15L908.34 405.5L907.7 405.72L907.48 405.08L688.34 481.2L824.08 671.04L603.13 825.96L470.23 640.07L320.5 831.59L109.42 663.45L252.26 479.04L35.8999 407.04L122.6 151.3L332.91 221.29V1.3501H602.64L602.65 225.09L817.93 150.33L907.06 405.94L907.7 405.72Z" fill="#F2EFEE"/>
<path opacity="0.42" d="M873.51 405.72L874.15 405.5L784.57 148.61L569.81 223.19L569.8 0H297.37V219.41L87.57 149.59L0 407.9L215.84 479.73L73.35 663.68L286.54 833.5L435.99 642.32L568.62 827.83L791.79 671.37L656.31 481.88L874.37 406.15L874.15 405.5L873.51 405.72L873.29 405.08L654.16 481.2L789.9 671.04L568.94 825.96L436.04 640.07L286.32 831.59L75.24 663.45L218.08 479.04L1.72 407.04L88.41 151.3L298.73 221.29V1.3501H568.45L568.46 225.09L783.74 150.33L872.88 405.94L873.51 405.72L873.29 405.08L873.51 405.72Z" fill="#F2EFEE"/>
</svg>
