<svg width="824" height="755" viewBox="0 0 824 755" fill="none" xmlns="http://www.w3.org/2000/svg">
<path d="M690.81 754.23C678.51 754.23 666.18 753.26 653.83 751.25C622.17 746.1 594.87 732.8 570.87 712.77C546.87 692.73 526.14 665.99 507.49 633.9C496.29 614.62 485.83 593.4 475.87 570.55C465.52 552.52 455.69 533.04 446.2 512.34C436.35 495.64 426.87 477.84 417.63 459.07C406.84 441.8 396.4 423.41 386.16 404.09C374.72 386.84 363.58 368.57 352.57 349.46C340.39 332.33 328.45 314.28 316.59 295.49C303.59 278.63 290.77 260.96 277.95 242.66C264.04 226.25 250.24 209.15 236.38 191.54C227.26 181.91 218.15 172.07 209.01 162.06C203.24 155.73 197.46 149.34 191.67 142.89C189.68 141.04 187.69 139.19 185.69 137.33C171.76 124.33 157.79 111.01 143.69 97.5C126.72 84 109.66 70.2 92.39 56.27C76.88 45.98 61.28 35.5699 45.5 25.1299C42.98 23.4499 40.45 21.7799 37.92 20.1099C34.8 18.4499 31.67 16.7901 28.54 15.1201C19.07 10.0801 9.57 5.04 0 0H5.20001C8.73001 1.86 12.25 3.71984 15.76 5.58984C13.84 4.33984 11.92 3.08984 10 1.83984C8.51 1.22984 7.01002 0.61 5.52002 0H11.92C13.87 0.8 15.82 1.5999 17.77 2.3999C22.57 4.3699 27.36 6.3398 32.15 8.2998C28.6 5.5298 25.03 2.77 21.45 0H25.42C30.45 3.9 35.46 7.79971 40.43 11.6997C47.99 14.8097 55.54 17.9 63.09 20.98C56.03 14.45 48.9 7.91992 41.69 1.41992C40.09 0.949922 38.5 0.48 36.9 0H45.47C53.01 2.23 60.54 4.4499 68.08 6.6499C65.95 4.4299 63.82 2.22 61.67 0H65.05C67.6301 2.67 70.19 5.33977 72.74 8.00977C81.23 10.4898 89.73 12.9499 98.25 15.3999C93.96 10.2599 89.62 5.13 85.23 0H88.42C93.13 5.52 97.79 11.0498 102.4 16.5898C110.95 19.0298 119.51 21.4501 128.1 23.8501C122.24 15.8801 116.29 7.93 110.23 0H113.28C119.59 8.28 125.78 16.5899 131.88 24.8999C140.47 27.2799 149.07 29.6397 157.7 31.9497C150.8 21.4097 143.76 10.8899 136.56 0.399902C135.84 0.269902 135.12 0.13 134.4 0H148.03C153.7 1.02 159.37 2.03004 165.06 3.04004C164.43 2.02004 163.8 1.01 163.17 0H166.03C166.78 1.2 167.52 2.4001 168.26 3.6001C177.26 5.1801 186.3 6.74002 195.36 8.27002C193.81 5.51002 192.26 2.76 190.69 0H193.48C195.14 2.93 196.79 5.84978 198.43 8.77979C204.47 9.79979 210.53 10.8098 216.6 11.7998C219.57 12.2798 222.55 12.76 225.53 13.23C223.28 8.81998 221.01 4.41 218.71 0H221.45C223.83 4.57 226.18 9.13996 228.5 13.71C237.34 15.12 246.21 16.4901 255.12 17.8301C252.35 11.8801 249.53 5.94 246.68 0H249.38C252.3 6.08 255.17 12.17 258.01 18.27C267.17 19.63 276.36 20.96 285.6 22.25C282.43 14.82 279.2 7.41 275.91 0H278.57C281.91 7.54 285.19 15.0801 288.41 22.6401C337.23 29.3901 387.22 34.9401 439 38.5801C466.82 40.5401 494.67 41.3701 522.55 41.3701C611.89 41.3701 701.5 32.8699 791.05 25.9199C801.94 25.0699 812.84 24.2497 823.73 23.4697V25.8999C812.91 26.6799 802.07 27.4998 791.24 28.3398C701.72 35.2898 612.06 43.7998 522.57 43.7998C494.64 43.7998 466.72 42.97 438.83 41C387.5 37.39 337.92 31.9097 289.51 25.2397C295.31 38.9097 300.91 52.6098 306.34 66.3198C317.73 68.4498 329.21 70.4699 340.78 72.3599C377.23 78.2899 414.64 82.9497 453.35 85.9297C474.3 87.5497 495.26 88.27 516.24 88.27C618.58 88.27 721.18 71.01 823.52 55.5C823.59 55.49 823.66 55.4797 823.73 55.4697V57.9199C721.47 73.4199 618.81 90.6997 516.25 90.6997C495.21 90.6997 474.18 89.9699 453.16 88.3599C414.38 85.3699 376.9 80.7 340.39 74.75C329.3 72.95 318.31 71.0197 307.39 68.9897C312.76 82.6197 317.96 96.2499 323 109.86C346.44 115.45 370.34 120.32 394.83 124.31C418.53 128.16 442.78 131.21 467.71 133.29C485.39 134.76 503.06 135.44 520.75 135.44C621.76 135.44 722.94 113.25 823.74 90.5298V93.02C723.09 115.7 621.96 137.87 520.76 137.87C503.02 137.87 485.25 137.19 467.51 135.7C442.52 133.62 418.2 130.57 394.44 126.7C370.43 122.79 347 118.04 324.01 112.6C329 126.12 333.84 139.63 338.55 153.09C368.2 161.8 398.75 168.96 430.55 174.14C447.35 176.87 464.5 179.06 482.06 180.64C497.85 182.06 513.62 182.72 529.42 182.72C612.69 182.72 696.01 164.28 779.07 141.21C793.97 137.07 808.86 132.78 823.74 128.42V130.95C726.08 159.53 627.83 185.14 529.42 185.14C513.56 185.14 497.7 184.48 481.84 183.05C464.23 181.47 447.02 179.28 430.17 176.53C398.84 171.43 368.74 164.42 339.53 155.9C344.19 169.28 348.72 182.61 353.14 195.88C386.6 207.75 421.44 217.06 458.31 223.06C470.77 225.09 483.46 226.74 496.4 227.99C510.98 229.39 525.56 230.05 540.14 230.05C627.31 230.05 714.45 206.44 801.2 176.76C808.72 174.18 816.23 171.57 823.74 168.92V171.49C782.73 185.95 741.61 199.39 700.39 209.97C647.11 223.62 593.67 232.48 540.15 232.48C525.5 232.48 510.83 231.82 496.17 230.4C483.17 229.15 470.43 227.5 457.92 225.46C421.55 219.53 387.14 210.4 354.1 198.78C358.47 211.95 362.74 225.05 366.92 238.07C402.99 253.31 440.96 264.85 481.85 271.51C491.32 273.06 500.95 274.33 510.75 275.34C524.52 276.75 538.29 277.42 552.06 277.42C642.5 277.42 732.84 248.57 822.67 212.2C823.03 212.06 823.39 211.91 823.74 211.77V214.39C789.14 228.39 754.45 241.3 719.67 251.89C663.99 268.85 608.09 279.85 552.07 279.85C538.22 279.85 524.36 279.17 510.5 277.75C500.65 276.75 490.98 275.46 481.46 273.91C441.09 267.33 403.55 256.02 367.9 241.11C372.03 254.01 376.07 266.82 380.05 279.53C418.04 298.5 458.49 312.45 502.87 319.68C510.17 320.87 517.58 321.87 525.1 322.69C538.32 324.13 551.52 324.81 564.73 324.81C604.79 324.81 644.81 318.53 684.77 307.94C731.21 295.64 777.56 277.52 823.75 256.72V259.38C795.46 272.09 767.09 283.81 738.65 293.79C680.92 314.07 622.91 327.24 564.73 327.24C551.44 327.24 538.15 326.55 524.84 325.1C517.28 324.28 509.82 323.27 502.48 322.07C458.64 314.93 418.63 301.27 381.05 282.73C384.98 295.31 388.85 307.78 392.66 320.13C432.11 343.27 474.62 359.9 522.25 367.66C527.91 368.58 533.64 369.37 539.45 370.04C552.27 371.52 565.08 372.22 577.89 372.22C619.45 372.22 660.96 364.82 702.38 352.38C742.94 340.2 783.41 323.17 823.75 303.53V306.22C801.69 316.95 779.57 326.89 757.41 335.68C697.86 359.3 637.99 374.64 577.89 374.64C565 374.64 552.09 373.94 539.18 372.45C533.33 371.78 527.56 370.98 521.86 370.05C474.82 362.39 432.75 346.12 393.72 323.55C397.48 335.74 401.2 347.8 404.89 359.72C445.46 387.59 489.75 407.24 540.51 415.51C544.89 416.22 549.32 416.85 553.8 417.39C566.34 418.91 578.87 419.64 591.4 419.64C634.31 419.64 677.15 411.13 719.88 396.83C754.59 385.21 789.22 369.76 823.75 351.95V354.68C807.86 362.85 791.94 370.53 776 377.56C714.82 404.53 653.25 422.06 591.4 422.06C578.78 422.06 566.15 421.33 553.51 419.8C549 419.26 544.54 418.63 540.12 417.91C490.02 409.75 446.18 390.57 406.04 363.45C409.67 375.17 413.28 386.75 416.87 398.17C458.29 431.4 504.1 454.5 557.98 463.27C561.34 463.82 564.72 464.31 568.14 464.75C580.5 466.31 592.84 467.07 605.17 467.07C649.31 467.07 693.36 457.44 737.29 441.27C766.17 430.64 795 417.17 823.75 401.75V404.5C814 409.71 804.23 414.7 794.46 419.43C731.78 449.77 668.65 469.5 605.17 469.49C592.75 469.49 580.29 468.74 567.84 467.15C564.39 466.72 560.98 466.22 557.59 465.67C504.47 457.02 459.11 434.55 418.17 402.31C421.6 413.16 425.01 423.86 428.43 434.39C428.53 434.7 428.63 435.01 428.73 435.32C439.58 445.49 450.78 454.83 462.4 463.26C495.74 487.44 532.57 504.08 574.87 510.97C577.39 511.38 579.93 511.76 582.49 512.1C594.72 513.72 606.93 514.5 619.14 514.5C657.24 514.5 695.26 506.91 733.18 493.75C763.44 483.26 793.64 469.22 823.75 452.69V455.46C820.11 457.45 816.48 459.4 812.84 461.32C748.75 495.01 684.14 516.93 619.14 516.93C606.83 516.93 594.5 516.15 582.17 514.5C579.59 514.16 577.02 513.78 574.48 513.37C518.35 504.23 471.73 478.04 430.28 440.06C433.7 450.56 437.14 460.88 440.6 471.02C453.27 484.88 466.46 497.42 480.35 508.43C512.85 534.22 549.11 551.74 591.3 558.62C593.14 558.91 594.98 559.19 596.84 559.45C608.99 561.14 621.13 561.95 633.26 561.95C672.31 561.95 711.27 553.55 750.11 539C774.71 529.79 799.26 518.12 823.75 504.56V507.34C760.75 542.05 697.22 564.38 633.27 564.38C621.03 564.38 608.77 563.56 596.5 561.85C594.63 561.59 592.77 561.31 590.91 561.01C531.83 551.39 484.21 521.05 442.54 476.69C445.86 486.35 449.21 495.83 452.59 505.13C466.87 523.38 481.91 539.65 498.01 553.58C529.64 580.97 565.32 599.36 607.39 606.22C608.65 606.42 609.92 606.62 611.18 606.8C623.31 608.56 635.42 609.4 647.52 609.4C687.47 609.4 727.3 600.2 767.02 584.26C785.96 576.66 804.87 567.53 823.75 557.14V559.91C792.86 576.82 761.84 590.39 730.7 599.41C703.06 607.41 675.33 611.83 647.51 611.83C635.3 611.83 623.07 610.98 610.84 609.2C609.55 609.02 608.28 608.82 607 608.61C545.08 598.53 496.78 563.65 455.24 512.36C458.4 520.9 461.59 529.29 464.82 537.49C480.49 560.93 497.19 581.54 515.42 598.71C546.19 627.69 581.27 646.95 623.21 653.79C623.98 653.91 624.75 654.03 625.53 654.15C637.66 655.98 649.77 656.86 661.87 656.86C702.68 656.86 743.35 646.85 783.89 629.54C797.19 623.85 810.48 617.38 823.75 610.22V612.98C798.27 626.65 772.69 637.79 747.02 645.72C718.74 654.46 690.35 659.29 661.86 659.29C649.65 659.29 637.41 658.4 625.17 656.55C624.38 656.43 623.6 656.31 622.82 656.18C559.13 645.82 510.98 607.02 470.28 549.7C469.82 549.06 469.38 548.41 468.93 547.77C471.94 555.18 474.98 562.43 478.07 569.53C494.64 598.37 512.53 623.44 532.49 643.85C562.37 674.39 596.84 694.49 638.6 701.3C639.02 701.37 639.45 701.44 639.88 701.5C652.11 703.44 664.33 704.37 676.54 704.37C718.08 704.37 759.48 693.59 800.73 674.95C808.41 671.48 816.08 667.74 823.75 663.74V666.47C803.67 676.88 783.52 685.55 763.32 692.16C734.5 701.58 705.56 706.79 676.52 706.79C664.2 706.79 651.86 705.86 639.5 703.9C639.07 703.84 638.64 703.77 638.21 703.7C606.47 698.53 578.85 685.75 554.31 666.67C529.77 647.59 508.3 622.23 488.8 591.88C488.06 590.73 487.32 589.55 486.59 588.39C505.28 628.31 525.82 662.42 549.72 688.92C578.72 721.09 612.59 742.07 654.22 748.85C666.44 750.84 678.64 751.8 690.82 751.8C733.24 751.8 775.5 740.2 817.59 720.13C819.65 719.15 821.7 718.15 823.75 717.13V719.84C809.08 727.07 794.37 733.31 779.63 738.4C750.16 748.59 720.54 754.23 690.81 754.23ZM457.83 531.24C460.77 537.25 463.75 543.15 466.77 548.91C465.39 545.52 464.02 542.09 462.66 538.63C461.04 536.2 459.43 533.73 457.83 531.24ZM439.91 492.32C442.7 498.73 445.51 505.04 448.35 511.24C451.65 516.83 454.99 522.29 458.38 527.62C455.71 520.63 453.06 513.53 450.43 506.31C446.88 501.77 443.38 497.1 439.91 492.32ZM425.24 457.09C428.58 465.42 431.94 473.6 435.34 481.63C439.41 487.51 443.53 493.24 447.72 498.79C444.61 490.11 441.53 481.27 438.47 472.29C436.42 470.04 434.38 467.76 432.36 465.44C429.97 462.71 427.6 459.92 425.24 457.09ZM430 478.11C432 481.94 434.01 485.72 436.04 489.45C435.09 487.24 434.14 485.02 433.2 482.79C432.13 481.24 431.06 479.68 430 478.11ZM410.36 438.33C413.47 444.96 416.6 451.47 419.75 457.88C422.62 462.48 425.52 467 428.45 471.43C425.67 464.69 422.92 457.85 420.17 450.91C416.87 446.81 413.6 442.61 410.36 438.33ZM411.49 421.7C415.07 431.18 418.66 440.5 422.28 449.65C426.95 455.44 431.68 461.04 436.48 466.45C433.18 456.68 429.89 446.75 426.62 436.67C422.02 432.35 417.49 427.89 413.01 423.29C412.5 422.76 412 422.23 411.49 421.7ZM394.38 403C398.02 411.31 401.67 419.49 405.35 427.52C409.24 432.86 413.16 438.07 417.13 443.16C413.8 434.63 410.49 425.97 407.19 417.19C402.88 412.58 398.61 407.85 394.38 403ZM399.46 423.47C401.84 427.73 404.23 431.93 406.64 436.08C405.5 433.65 404.37 431.2 403.25 428.74C401.98 427 400.72 425.24 399.46 423.47ZM398.07 385.42C400.28 391.51 402.49 397.55 404.7 403.54C406.23 407.68 407.77 411.8 409.3 415.89C414.48 421.39 419.72 426.71 425.05 431.83C421.62 421.24 418.2 410.49 414.78 399.6C409.13 395.06 403.56 390.33 398.07 385.42ZM378.29 383.67C381.59 390.16 384.9 396.56 388.24 402.85C391.49 407.74 394.76 412.56 398.06 417.28C395.03 410.53 392.03 403.69 389.03 396.75C385.42 392.48 381.84 388.12 378.29 383.67ZM379.35 367.74C379.97 369.23 380.59 370.71 381.21 372.19C384.5 380.06 387.8 387.82 391.11 395.47C395.68 400.87 400.29 406.12 404.97 411.22C401.38 401.61 397.81 391.84 394.24 381.94C393.93 381.67 393.63 381.39 393.32 381.11C388.61 376.78 383.96 372.32 379.35 367.74ZM384.69 348.03C388.58 359.01 392.45 369.86 396.31 380.55C401.95 385.69 407.66 390.64 413.45 395.4C412.68 392.93 411.9 390.46 411.13 387.98C408.37 379.15 405.6 370.24 402.82 361.24C396.69 357.02 390.66 352.61 384.69 348.03ZM360.96 348.59C364.88 356.75 368.81 364.79 372.76 372.7C377.02 378.24 381.32 383.65 385.66 388.94C382.04 380.48 378.43 371.9 374.83 363.2C370.16 358.45 365.54 353.58 360.96 348.59ZM366.88 369C369.29 373 371.71 376.96 374.14 380.87C372.99 378.58 371.84 376.29 370.68 373.98C369.41 372.33 368.14 370.67 366.88 369ZM364.57 331.7C368.69 341.88 372.79 351.93 376.89 361.83C382.01 367.04 387.2 372.09 392.43 376.98C390.41 371.35 388.38 365.68 386.35 359.97C384.62 355.11 382.88 350.2 381.14 345.28C378.47 343.18 375.8 341.06 373.16 338.89C370.28 336.54 367.42 334.13 364.56 331.7M343.99 329.38C347.52 335.72 351.05 341.98 354.6 348.14C358.03 352.97 361.48 357.72 364.95 362.4C361.71 355.78 358.49 349.09 355.26 342.31C351.47 338.08 347.72 333.77 343.98 329.38M371.18 309.63C375.22 321.15 379.21 332.55 383.2 343.81C389.27 348.55 395.42 353.11 401.65 357.48C398.01 345.7 394.34 333.78 390.62 321.75C384.06 317.88 377.58 313.84 371.19 309.63M344.52 313.69C348.78 322.91 353.04 332 357.3 340.95C362.26 346.5 367.27 351.9 372.33 357.16C368.84 348.68 365.35 340.11 361.84 331.43C361.41 330.37 360.98 329.3 360.55 328.23C355.15 323.52 349.81 318.67 344.52 313.69ZM349.76 294.71C354.06 305.53 358.33 316.22 362.59 326.78C368.21 331.68 373.89 336.41 379.63 340.99C375.73 329.92 371.8 318.72 367.83 307.39C362.63 303.91 357.49 300.33 352.38 296.63C351.5 296 350.63 295.35 349.76 294.71ZM325.16 294.72C327.89 299.86 330.62 304.95 333.35 310C334.86 312.79 336.37 315.56 337.88 318.33C341.68 322.93 345.49 327.45 349.33 331.89C350.05 332.73 350.78 333.57 351.5 334.4C347.58 326.09 343.66 317.67 339.74 309.16C334.84 304.45 329.98 299.64 325.15 294.72M331.99 314.95C334.47 318.73 336.96 322.49 339.46 326.2C338.27 324.04 337.07 321.87 335.88 319.7C334.58 318.12 333.28 316.54 331.99 314.95ZM328.27 278.17C332.79 288.15 337.29 298.01 341.77 307.75C347.3 313.05 352.89 318.21 358.53 323.22C354.39 312.93 350.24 302.51 346.06 291.98C340.07 287.52 334.15 282.91 328.27 278.17ZM357.36 270.25C361.58 282.22 365.74 294.09 369.85 305.83C376.33 310.16 382.9 314.32 389.54 318.29C385.76 306.05 381.93 293.69 378.03 281.24C371.06 277.74 364.17 274.07 357.36 270.25ZM307.22 275.86C307.84 276.88 308.47 277.9 309.1 278.91C312.25 284.02 315.41 289.08 318.57 294.08C322.22 298.82 325.88 303.49 329.56 308.09C326.08 301.63 322.6 295.1 319.11 288.5C315.13 284.35 311.17 280.14 307.22 275.86ZM334.71 256.8C339.21 268.13 343.66 279.35 348.06 290.44C354.14 294.97 360.28 299.35 366.49 303.57C362.42 291.96 358.31 280.24 354.15 268.42C347.61 264.69 341.13 260.81 334.71 256.8ZM307.18 260.42C311.83 269.41 316.47 278.29 321.09 287.06C323.17 289.22 325.25 291.37 327.34 293.5C330.53 296.74 333.73 299.93 336.95 303.08C332.67 293.74 328.37 284.29 324.05 274.74C318.38 270.09 312.76 265.31 307.17 260.42M311.88 241.82C316.64 252.4 321.35 262.87 326.03 273.23C332.08 278.18 338.18 283 344.34 287.66C340.01 276.76 335.64 265.74 331.22 254.62C324.71 250.49 318.27 246.22 311.87 241.82M286.7 241.86C291.31 249.61 295.9 257.27 300.49 264.84C305.29 270.19 310.11 275.44 314.95 280.6C313.96 278.71 312.97 276.82 311.98 274.92C308.71 268.66 305.44 262.34 302.15 255.98C296.97 251.37 291.82 246.66 286.7 241.86ZM343.08 230.02C347.51 242.36 351.86 254.62 356.14 266.77C363.03 270.68 369.99 274.43 377.04 278.01C373.08 265.39 369.06 252.67 364.96 239.86C357.59 236.73 350.3 233.45 343.08 230.02ZM294.54 261.81C297.11 265.37 299.69 268.91 302.27 272.41C301.03 270.39 299.79 268.35 298.55 266.3C297.21 264.81 295.88 263.31 294.54 261.81ZM289.3 225.62C294.27 235.34 299.2 244.96 304.11 254.46C304.33 254.66 304.54 254.85 304.76 255.05C310.4 260.05 316.07 264.93 321.79 269.7C317.24 259.62 312.65 249.42 308.02 239.14C301.73 234.75 295.49 230.25 289.3 225.62ZM319.24 218.05C323.96 229.79 328.61 241.44 333.19 252.98C339.7 257.11 346.27 261.09 352.91 264.92C348.66 252.88 344.35 240.75 339.96 228.53C332.99 225.17 326.08 221.67 319.24 218.05ZM267.64 223.52C271.72 229.47 275.8 235.36 279.88 241.18C283.78 245.78 287.68 250.31 291.59 254.79C289.98 252.1 288.36 249.4 286.74 246.69C284.59 243.08 282.44 239.45 280.28 235.8C276.05 231.77 271.84 227.67 267.63 223.52M295.13 204.68C300.13 215.72 305.07 226.68 309.95 237.53C316.48 242.08 323.05 246.49 329.69 250.75C325.16 239.36 320.57 227.86 315.91 216.28C308.93 212.54 302 208.67 295.13 204.68ZM267.03 208.43C272.12 217.14 277.17 225.76 282.21 234.28C287.79 239.6 293.39 244.8 299.02 249.9C294.33 240.79 289.62 231.59 284.87 222.3C278.89 217.78 272.95 213.15 267.03 208.43ZM328.17 189.06C332.85 201.7 337.42 214.27 341.91 226.76C349.19 230.26 356.54 233.6 363.97 236.8C359.81 223.86 355.57 210.84 351.21 197.76C343.46 195 335.78 192.09 328.16 189.06M271.17 190.19C276.43 200.45 281.62 210.62 286.78 220.71C293.16 225.53 299.59 230.23 306.07 234.81C301.27 224.15 296.43 213.4 291.51 202.57C284.68 198.55 277.91 194.42 271.17 190.19ZM245.33 190.59C250.33 198.05 255.32 205.44 260.29 212.75C265.41 217.92 270.54 223 275.69 228C271.06 220.13 266.41 212.18 261.73 204.17C256.24 199.72 250.78 195.19 245.33 190.59ZM303.17 178.56C308.14 190.62 313.02 202.63 317.82 214.54C324.74 218.24 331.73 221.81 338.78 225.25C334.32 212.86 329.77 200.38 325.13 187.84C317.75 184.87 310.44 181.76 303.17 178.56ZM254.15 209.98C256.89 213.39 259.63 216.77 262.38 220.13C262 219.58 261.62 219.02 261.24 218.47C260.29 217.08 259.34 215.68 258.39 214.29C256.98 212.86 255.56 211.43 254.15 209.98ZM247.36 174.68C252.82 184.05 258.23 193.35 263.6 202.55C269.81 207.58 276.04 212.5 282.32 217.3C277.31 207.5 272.25 197.6 267.14 187.63C265.57 186.64 264.01 185.64 262.45 184.63C257.4 181.37 252.38 178.05 247.37 174.68M277.84 166.84C283.11 178.25 288.29 189.6 293.4 200.86C300.38 204.95 307.41 208.93 314.5 212.77C309.74 200.97 304.9 189.09 299.97 177.15C292.54 173.82 285.17 170.38 277.85 166.84M225.05 173.09C229.45 178.77 233.85 184.4 238.24 189.97C242.42 194.39 246.61 198.76 250.8 203.08C246.72 197.04 242.64 190.95 238.53 184.81C234.03 180.95 229.53 177.05 225.04 173.09M252.57 154.11C258.12 164.78 263.59 175.4 268.99 185.93C275.87 190.31 282.79 194.57 289.76 198.71C284.71 187.6 279.59 176.41 274.39 165.16C267.07 161.58 259.8 157.89 252.57 154.11ZM223.82 158.38C229.37 166.72 234.89 174.99 240.37 183.19C246.31 188.28 252.27 193.28 258.25 198.19C253.12 189.38 247.95 180.5 242.73 171.55C236.4 167.24 230.1 162.84 223.82 158.38ZM312.49 147.52C317.46 160.39 322.3 173.22 327.03 185.99C334.69 189.07 342.43 192.01 350.23 194.83C345.83 181.63 341.31 168.36 336.67 155.06C328.55 152.66 320.49 150.14 312.49 147.52ZM286.37 138.48C291.64 150.81 296.79 163.09 301.84 175.31C309.16 178.57 316.55 181.72 323.99 184.75C319.28 172.07 314.46 159.32 309.52 146.54C301.75 143.95 294.04 141.26 286.38 138.48M227.36 140.48C233.16 150.33 238.88 160.13 244.55 169.85C250.92 174.19 257.32 178.44 263.76 182.59C264.15 182.84 264.54 183.08 264.93 183.34C259.62 173 254.26 162.6 248.81 152.14C246.66 151 244.51 149.86 242.36 148.7C237.34 146.01 232.35 143.26 227.37 140.48M200.8 141.63C206.23 148.7 211.62 155.73 217 162.69C222.49 167.61 227.98 172.46 233.48 177.25C228.43 169.69 223.36 162.07 218.25 154.39C212.42 150.2 206.6 145.94 200.8 141.63ZM259.83 128.44C265.4 140.13 270.86 151.78 276.23 163.36C283.64 166.98 291.1 170.48 298.61 173.87C293.59 161.75 288.48 149.58 283.24 137.36C275.39 134.48 267.59 131.5 259.83 128.44ZM210.67 160.27C213.62 163.5 216.56 166.72 219.51 169.91C218.08 168.06 216.64 166.21 215.21 164.35C213.7 162.99 212.19 161.63 210.68 160.27M202.26 126.07C208.24 135 214.16 143.88 220.02 152.68C226.62 157.43 233.23 162.09 239.87 166.66C234.36 157.21 228.79 147.69 223.15 138.13C216.16 134.19 209.19 130.16 202.25 126.07M233.31 117.53C239.17 128.51 244.93 139.46 250.6 150.34C257.94 154.21 265.33 157.98 272.76 161.65C267.44 150.19 262.03 138.66 256.51 127.1C248.73 124 241 120.8 233.31 117.53ZM179.21 125.31C183.96 130.64 188.7 135.94 193.42 141.2C197.92 145.37 202.42 149.5 206.93 153.6C202.51 147.85 198.08 142.08 193.62 136.26C188.81 132.64 184.01 128.99 179.21 125.31ZM295.89 105.54C301.19 118.58 306.34 131.61 311.36 144.59C319.41 147.25 327.51 149.81 335.68 152.24C330.98 138.83 326.15 125.38 321.18 111.92C312.69 109.88 304.26 107.76 295.89 105.54ZM177.35 111.06C183.4 118.93 189.39 126.76 195.35 134.53C201.69 139.29 208.03 143.99 214.39 148.61C208.78 140.2 203.12 131.72 197.41 123.2C190.71 119.22 184.02 115.17 177.35 111.06ZM206.79 105.88C212.92 116.07 218.96 126.24 224.92 136.35C231.09 139.82 237.29 143.23 243.51 146.57C244.61 147.17 245.71 147.75 246.82 148.34C241.22 137.61 235.53 126.83 229.74 116.01C222.06 112.71 214.41 109.33 206.79 105.88ZM268.65 97.98C274.25 110.49 279.72 122.98 285.06 135.43C292.78 138.25 300.55 140.97 308.37 143.6C303.36 130.68 298.22 117.73 292.94 104.76C284.79 102.58 276.7 100.32 268.65 97.98ZM240.96 89.6099C246.87 101.5 252.64 113.37 258.3 125.2C266.12 128.32 274 131.34 281.92 134.27C276.61 121.91 271.17 109.51 265.59 97.0898C257.33 94.6698 249.12 92.1799 240.96 89.6099ZM180.28 93.5298C186.64 102.86 192.92 112.15 199.12 121.39C206.28 125.65 213.47 129.82 220.68 133.92C214.83 124.02 208.91 114.07 202.89 104.09C195.33 100.64 187.8 97.1198 180.29 93.5298M152.95 95.79C158.82 102.39 164.66 108.95 170.46 115.48C176.33 120.04 182.2 124.56 188.07 129.03C182.59 121.87 177.07 114.68 171.51 107.45C165.32 103.61 159.13 99.72 152.94 95.79M213.23 80.5898C219.44 91.7898 225.51 102.97 231.48 114.11C239.27 117.45 247.09 120.71 254.96 123.88C249.34 112.15 243.6 100.38 237.73 88.6001C229.52 86.0001 221.35 83.3298 213.22 80.5898M163.93 113.46C167.12 116.49 170.3 119.51 173.47 122.51C171.91 120.76 170.36 119.01 168.79 117.26C167.17 115.99 165.54 114.73 163.92 113.46M153.83 80.6499C160.35 89.0099 166.79 97.3399 173.16 105.63C180.17 109.97 187.19 114.26 194.23 118.48C188.2 109.51 182.1 100.49 175.91 91.4497C168.53 87.8997 161.18 84.2999 153.83 80.6499ZM185.46 70.96C191.94 81.39 198.31 91.8097 204.58 102.2C212.32 105.73 220.09 109.18 227.9 112.56C221.98 101.54 215.96 90.4899 209.81 79.4199C201.66 76.6599 193.55 73.84 185.47 70.96M278.19 63.2798C283.87 76.4298 289.38 89.59 294.74 102.73C303.16 104.97 311.63 107.12 320.17 109.18C315.14 95.6197 309.95 82.04 304.59 68.46C295.74 66.8 286.94 65.0698 278.19 63.2798ZM130.06 81.0498C135.16 85.9498 140.24 90.8197 145.3 95.6797C150.14 99.5297 154.98 103.35 159.81 107.15C155.04 101.78 150.24 96.39 145.42 90.98C140.3 87.69 135.18 84.3898 130.06 81.0498ZM127.56 67.3701C134.1 74.6401 140.58 81.8901 147.01 89.1001C153.76 93.4301 160.52 97.7197 167.28 101.95C161.18 94.0397 155.02 86.0899 148.8 78.1299C141.71 74.5899 134.64 70.9901 127.56 67.3701ZM249.87 57.21C255.85 69.83 261.67 82.4601 267.35 95.0801C275.45 97.4401 283.59 99.7297 291.79 101.93C286.44 88.8497 280.95 75.7597 275.28 62.6797C266.77 60.9097 258.3 59.09 249.87 57.21ZM157.66 60.8101C164.4 70.4001 171.02 79.9798 177.56 89.5298C185.24 93.2198 192.94 96.8399 200.66 100.4C194.48 90.1699 188.19 79.9101 181.79 69.6401C173.73 66.7501 165.69 63.8001 157.67 60.8101M221.05 50.5698C227.34 62.5798 233.47 74.6001 239.45 86.6001C247.68 89.2001 255.96 91.7299 264.28 94.1899C258.63 81.6499 252.83 69.1001 246.87 56.5601C238.22 54.6201 229.62 52.6198 221.05 50.5698ZM129.85 50.23C136.78 58.9 143.62 67.5597 150.37 76.1997C157.96 79.9997 165.55 83.7399 173.16 87.4199C166.75 78.0699 160.24 68.6901 153.63 59.3101C145.68 56.3201 137.76 53.29 129.84 50.23M192.17 43.4497C198.75 54.7797 205.18 66.1097 211.48 77.4297C219.69 80.2097 227.94 82.9198 236.23 85.5698C230.27 73.6498 224.18 61.7301 217.92 49.8101C209.31 47.7401 200.72 45.6197 192.17 43.4497ZM101.79 54C108.09 60.01 114.36 66 120.58 71.96C126.85 76.07 133.11 80.1497 139.37 84.1997C133.45 77.5597 127.48 70.9097 121.47 64.2397C114.91 60.8497 108.35 57.44 101.79 54ZM113.8 70.4199C117.26 73.2099 120.71 75.9898 124.15 78.7598C122.46 77.1298 120.76 75.5099 119.06 73.8799C117.31 72.7299 115.55 71.5799 113.79 70.4199M163.23 35.9399C170.09 46.4999 176.81 57.0801 183.4 67.6401C191.59 70.5801 199.8 73.4498 208.05 76.2598C201.8 65.0498 195.4 53.8299 188.87 42.6099C180.3 40.4299 171.75 38.1999 163.23 35.9399ZM102.06 39.3198C109.11 46.9898 116.08 54.65 122.97 62.29C130.4 66.13 137.84 69.9199 145.28 73.6699C138.71 65.2899 132.06 56.8897 125.32 48.4897C117.55 45.4597 109.8 42.4098 102.05 39.3198M134.23 28.0698C141.35 37.8098 148.33 47.5601 155.19 57.3101C163.34 60.3601 171.51 63.3701 179.7 66.3301C173.17 55.8901 166.52 45.4398 159.72 35.0098C151.2 32.7298 142.7 30.4198 134.22 28.0698M259.25 20.8999C265.36 34.0999 271.27 47.3201 277.01 60.5601C285.8 62.3701 294.64 64.11 303.53 65.79C298.11 52.13 292.52 38.4701 286.73 24.8501C277.53 23.5801 268.37 22.2599 259.25 20.8999ZM77.59 41.2397C83.03 45.6097 88.4401 49.9701 93.8301 54.3101C99.0201 57.7501 104.2 61.1798 109.37 64.5898C104.25 59.6898 99.1 54.7901 93.92 49.8701C88.48 47.0101 83.05 44.1297 77.6 41.2397M229.89 16.3999C236.3 29.0499 242.51 41.7499 248.55 54.4399C257.02 56.3399 265.54 58.18 274.1 59.96C268.37 46.78 262.47 33.62 256.37 20.48C247.51 19.16 238.68 17.7899 229.88 16.3999M74.46 28.21C81.48 34.77 88.44 41.3299 95.34 47.8799C102.51 51.6499 109.67 55.3899 116.83 59.1099C110.24 51.8199 103.58 44.53 96.85 37.23C89.38 34.25 81.93 31.24 74.47 28.21M105.17 19.8999C112.5 28.7399 119.71 37.5997 126.82 46.4497C134.92 49.5997 143.02 52.71 151.14 55.77C144.36 46.18 137.47 36.5898 130.45 27.0098C122.01 24.6698 113.58 22.2899 105.17 19.8999ZM199.97 11.5C206.67 23.54 213.19 35.62 219.55 47.71C228.18 49.77 236.84 51.7998 245.54 53.7598C239.51 41.1198 233.31 28.5002 226.93 15.9102C223.37 15.3402 219.8 14.7699 216.25 14.1899C210.81 13.3099 205.39 12.41 199.98 11.5M170 6.37988C176.99 17.7299 183.8 29.12 190.46 40.52C199.08 42.71 207.73 44.87 216.41 46.96C210.08 34.95 203.58 22.9597 196.91 10.9897C187.91 9.47975 178.94 7.93988 170 6.37988ZM76.1 11.5098C83.59 19.3898 90.97 27.2897 98.26 35.1797C106.26 38.3797 114.27 41.5497 122.29 44.6797C115.31 36.0197 108.23 27.36 101.04 18.71C92.72 16.33 84.41 13.9298 76.11 11.5098M47.4 17.1797C54.12 22.4797 60.79 27.7901 67.42 33.0801C74.08 36.6301 80.73 40.1599 87.37 43.6699C81.02 37.6699 74.61 31.6599 68.15 25.6499C61.24 22.8399 54.32 20.0097 47.4 17.1797ZM139.95 1.00977C147.21 11.6098 154.3 22.2401 161.25 32.8901C169.86 35.1901 178.49 37.4499 187.15 39.6699C180.53 28.3599 173.74 17.0598 166.79 5.7998C157.82 4.2198 148.87 2.61977 139.95 1.00977ZM60.45 32.1299C64.16 34.5899 67.86 37.05 71.55 39.5C69.73 38.04 67.9 36.5801 66.08 35.1201C64.21 34.1201 62.33 33.1299 60.46 32.1299M47.08 3C54.63 9.85 62.1 16.7098 69.48 23.5698C77.33 26.7598 85.17 29.9301 93.01 33.0801C85.92 25.4301 78.75 17.7902 71.47 10.1602C63.34 7.79016 55.21 5.4 47.09 3M22.03 6.77002C27.77 10.52 33.47 14.27 39.15 18.02C44.67 20.96 50.17 23.9001 55.67 26.8301C50.22 22.4901 44.73 18.1498 39.21 13.8198C33.49 11.4798 27.77 9.13002 22.03 6.77002Z" fill="#576482"/>
</svg>
