<svg width="1439" height="746" viewBox="0 0 1439 746" fill="none" xmlns="http://www.w3.org/2000/svg">
<g clip-path="url(#clip0_112_311)">
<mask id="mask0_112_311" style="mask-type:alpha" maskUnits="userSpaceOnUse" x="-153" y="6" width="1614" height="744">
<path d="M-28.9101 669.935C-17.8357 670.662 -6.80226 671.124 4.17978 671.346C15.9118 672.132 27.6026 672.688 39.2524 673.013C51.8268 673.911 64.3704 674.611 76.8729 675.116C90.6698 676.201 104.426 677.133 118.161 677.903C246.637 689.896 373.46 694.504 498.217 692.691C674.166 690.127 846.026 674.808 1012.72 649.445H1012.73C1047.4 684.947 1085.21 718.798 1126.87 750L1130.47 749.949C1125.56 746.281 1120.69 742.597 1115.88 738.861C1079.6 710.703 1046.3 680.518 1015.46 649.026C1025.57 647.479 1035.66 645.897 1045.73 644.273C1084.99 681.792 1128.09 717.277 1176.02 749.282L1179.84 749.231C1168.36 741.606 1157.13 733.775 1146.18 725.774C1111.06 700.103 1078.65 672.577 1048.49 643.829C1058.24 642.256 1067.97 640.649 1077.68 639.008C1122.45 678.792 1171.95 715.977 1227.62 748.538L1231.75 748.47C1212.55 737.331 1194.07 725.637 1176.27 713.473C1141.98 690.041 1110.19 664.866 1080.48 638.537C1090.37 636.853 1100.26 635.143 1110.11 633.391C1161.87 675.868 1219.62 714.968 1285.47 747.692L1290.1 747.623C1260.7 733.176 1232.92 717.456 1206.56 700.727C1173.21 679.552 1142.14 656.762 1112.96 632.887C1122.83 631.126 1132.67 629.339 1142.5 627.51C1203.42 673.338 1272.16 714.635 1351.99 746.726L1357.43 746.649C1314.2 729.535 1274.2 709.72 1236.93 687.93C1204.48 668.953 1174.09 648.462 1145.42 626.971C1155.25 625.133 1165.06 623.27 1174.85 621.372C1248.67 671.825 1333.27 715.832 1434.14 745.538L1441.17 745.435C1377.19 727.09 1319.74 702.992 1267.41 675.09C1235.79 658.233 1206.04 639.982 1177.85 620.782C1187.65 618.876 1197.42 616.944 1207.17 614.969C1280.27 659.849 1363.21 698.641 1461 724.132L1460.96 722.004C1401.52 706.454 1347.58 685.972 1298.02 662.191C1267.17 647.385 1238.02 631.305 1210.26 614.337C1220.01 612.362 1229.73 610.344 1239.44 608.301C1304.74 643.811 1377.27 674.663 1460.4 696.034L1460.36 693.897C1413.3 681.758 1369.64 666.576 1328.77 649.214C1298.63 636.417 1270.02 622.432 1242.66 607.626C1252.35 605.574 1262.01 603.497 1271.65 601.395C1328.66 628.348 1390.7 651.907 1459.84 669.098L1459.8 666.969C1424.69 658.216 1391.44 647.812 1359.74 636.161C1330.22 625.304 1302.07 613.362 1275.03 600.651C1284.65 598.539 1294.25 596.394 1303.81 594.222C1352.01 613.559 1403.46 630.587 1459.32 643.649L1459.26 641.538C1431.71 635.075 1405.23 627.638 1379.68 619.431C1354.74 611.43 1330.69 602.694 1307.41 593.41C1316.94 591.239 1326.44 589.042 1335.92 586.811C1374.83 599.591 1415.61 610.952 1458.82 620.098L1458.77 617.996C1417.02 609.122 1377.53 598.189 1339.81 585.896C1349.21 583.673 1358.6 581.425 1367.96 579.152C1397.11 586.58 1427.18 593.265 1458.37 598.907L1458.33 596.821C1428.67 591.444 1400.03 585.118 1372.22 578.109C1381.46 575.852 1390.7 573.569 1399.91 571.253C1418.92 574.681 1438.27 577.809 1457.99 580.57L1457.95 578.502C1439.91 575.971 1422.19 573.133 1404.73 570.039C1413.76 567.765 1422.76 565.457 1431.75 563.132C1440.34 564.021 1448.98 564.858 1457.67 565.628L1457.63 563.585C1450.86 562.978 1444.12 562.337 1437.41 561.662C1444.11 559.909 1450.8 558.157 1457.48 556.379L1457.4 552.574C1451.33 552.395 1445.29 552.19 1439.27 551.967C1445.29 550.856 1451.3 549.736 1457.31 548.599L1457.22 543.864C1448.16 544.889 1439.1 545.881 1430.05 546.838C1411.02 547.411 1392.09 547.822 1373.24 548.095C1370.68 548.129 1368.14 548.163 1365.59 548.189C1343.99 546.804 1322.56 545.214 1301.26 543.487C1279.88 540.068 1258.73 536.469 1237.72 532.802C1220.22 528.288 1202.89 523.698 1185.67 519.107C1182.28 518.201 1178.89 517.295 1175.5 516.398C1172.69 515.397 1169.89 514.397 1167.09 513.397C1149.61 507.148 1132.31 500.891 1115.11 494.727C1095.53 485.828 1076.19 477.007 1056.97 468.415C1040.6 459.397 1024.39 450.506 1008.27 441.872C1005.97 440.641 1003.66 439.41 1001.36 438.188C994.474 433.743 987.612 429.332 980.77 424.981C969.942 418.1 959.165 411.346 948.409 404.772C931.54 392.343 914.826 380.315 898.111 368.869C882.157 355.713 866.306 343.07 850.423 331.119C835.322 317.416 820.272 304.328 805.16 292.027C790.849 277.931 776.559 264.544 762.146 252.038C748.554 237.66 734.932 224.067 721.156 211.459C708.653 197.379 696.089 184.129 683.361 171.845C670.262 156.202 657.041 141.635 643.573 128.325C629.622 110.989 615.476 95.072 600.939 80.8645C576.746 57.2196 551.443 38.2766 524.106 25.36C496.769 12.4348 467.377 5.54466 435.109 6.02337C392.157 6.63886 351.578 17.2646 312.91 35.3359C245.23 66.965 183.334 121.401 124.345 185.284C35.8828 281.103 -46.0253 398.233 -130.594 491.71L-28.9204 669.935M1403.39 549.557L1398.03 550.095C1396.15 549.993 1394.27 549.899 1392.4 549.788C1396.05 549.719 1399.72 549.642 1403.39 549.557ZM-90.313 490.316C-5.94959 400.045 76.2051 289.617 164.76 201.303C209.037 157.151 254.907 118.529 303.407 90.7211C351.917 62.9045 403.016 45.9102 457.844 44.9015C458.275 44.9015 458.717 44.8846 459.148 44.8761C501.7 44.2606 539.413 55.6811 574.444 76.3854C597.847 90.2167 620.037 108.203 641.59 129.488C645.915 134.874 650.23 140.387 654.534 146.046C653.979 145.585 653.425 145.114 652.86 144.653C602.316 103.509 547.724 78.7277 482.839 79.6766C482.037 79.6937 481.246 79.7108 480.445 79.7279C438.962 80.7281 399.543 90.4901 361.789 106.792C295.712 135.309 234.679 183.822 176.184 240.566C88.4508 325.674 6.43989 429.358 -77.9338 512.055L-90.3027 490.316M693.172 187.395C688.888 183.967 684.583 180.65 680.258 177.436C676.365 171.888 672.481 166.434 668.588 161.074C672.892 164.964 677.176 168.965 681.44 173.076C685.364 177.752 689.268 182.531 693.182 187.395M732.076 227.444C728.1 224.401 724.125 221.435 720.118 218.545C716.163 213.245 712.208 208.014 708.253 202.876C711.951 206.099 715.629 209.381 719.296 212.741C723.56 217.545 727.823 222.452 732.086 227.444M773.6 267.681C769.286 264.544 764.971 261.484 760.636 258.509C756.424 253.243 752.222 248.054 748.02 242.942C752.129 246.345 756.228 249.824 760.317 253.372C764.745 258.056 769.173 262.826 773.6 267.681ZM803.403 293.429C808.016 297.977 812.639 302.602 817.272 307.295C812.793 304.243 808.293 301.251 803.793 298.328C799.386 293.233 795 288.198 790.613 283.231C794.887 286.565 799.15 289.967 803.413 293.429M860.82 343.668C861.621 344.404 862.422 345.156 863.224 345.899C858.56 342.959 853.875 340.078 849.191 337.257C844.557 332.342 839.945 327.486 835.342 322.682C839.811 325.922 844.27 329.221 848.728 332.581C852.755 336.231 856.782 339.924 860.82 343.668ZM911.754 383.085C906.854 380.298 901.954 377.554 897.043 374.862C894.259 372.178 891.475 369.51 888.701 366.86C886.616 364.86 884.53 362.885 882.455 360.91C887.129 364.014 891.804 367.168 896.478 370.365C901.553 374.554 906.648 378.802 911.754 383.085ZM962.935 418.27C957.789 415.689 952.642 413.133 947.484 410.628C942.327 406.192 937.191 401.78 932.075 397.421C936.996 400.353 941.927 403.319 946.858 406.337C952.2 410.278 957.552 414.253 962.935 418.27ZM1016.85 450.797C1011.45 448.48 1006.03 446.181 1000.63 443.924C995.183 439.804 989.759 435.701 984.355 431.623C989.543 434.333 994.741 437.069 999.939 439.83C1005.56 443.463 1011.19 447.113 1016.85 450.797ZM1073.42 479.922C1067.75 477.938 1062.09 475.981 1056.44 474.04C1050.7 470.296 1044.99 466.577 1039.31 462.867C1044.77 465.269 1050.24 467.697 1055.71 470.151C1061.6 473.39 1067.5 476.648 1073.42 479.922ZM1132.46 504.891C1126.56 503.327 1120.66 501.771 1114.77 500.224C1108.76 496.941 1102.78 493.667 1096.85 490.402C1102.57 492.436 1108.3 494.488 1114.05 496.548C1120.17 499.326 1126.3 502.113 1132.46 504.891ZM1256.42 539.683C1250.19 539.136 1243.98 538.589 1237.76 538.025C1231.37 535.879 1225 533.708 1218.67 531.528C1224.81 532.606 1230.95 533.691 1237.12 534.768C1243.53 536.418 1249.96 538.059 1256.42 539.683ZM1320.28 548.548C1314.01 548.565 1307.75 548.582 1301.5 548.582C1295.03 547.061 1288.57 545.513 1282.16 543.957C1288.4 544.479 1294.66 545 1300.92 545.505C1307.35 546.531 1313.81 547.548 1320.28 548.548ZM1356.95 553.942C1349.28 554.626 1341.62 555.293 1333.94 555.951C1325.97 554.199 1318.05 552.412 1310.18 550.6C1317.87 550.582 1325.57 550.557 1333.27 550.514C1341.13 551.686 1349.02 552.831 1356.95 553.942ZM1346.66 550.42C1352.95 550.36 1359.23 550.301 1365.52 550.215C1371.88 550.625 1378.25 551.019 1384.63 551.386C1378.4 551.976 1372.18 552.557 1365.95 553.13C1359.5 552.249 1353.07 551.343 1346.66 550.42ZM14.2372 666.987C10.1691 666.533 6.11113 666.072 2.08404 665.602C2.7518 665.533 3.41956 665.465 4.07704 665.388C8.07331 665.892 12.0901 666.388 16.1275 666.884C15.5008 666.918 14.8639 666.952 14.2372 666.987ZM1232.27 548.3C1223.61 548.24 1214.96 548.172 1206.31 548.095C1197.42 543.718 1188.63 539.29 1179.93 534.828C1187.61 535.52 1195.28 536.221 1202.97 536.922C1203.85 536.999 1204.74 537.085 1205.62 537.162C1214.42 540.906 1223.3 544.624 1232.27 548.3ZM1212.47 537.786C1220.7 538.538 1228.93 539.282 1237.17 540.017C1245.65 542.872 1254.2 545.693 1262.8 548.48C1254.5 548.445 1246.2 548.394 1237.91 548.334C1229.35 544.855 1220.87 541.333 1212.47 537.786ZM-153 639.691C-94.8743 616.978 -39.358 578.972 15.4187 534.426C99.3403 466.176 181.526 382.581 268.303 315.091C311.697 281.35 356.232 251.645 402.677 229.881C449.122 208.125 497.467 194.319 548.525 192.336C551.124 192.242 553.703 192.173 556.271 192.131C599.367 191.507 638.785 199.73 676.118 214.673C689.124 219.879 701.883 225.914 714.437 232.667C714.591 232.907 714.745 233.146 714.899 233.386C720.17 241.549 725.46 249.858 730.792 258.278C684.511 237.83 635.601 226.076 581.482 226.863C578.03 226.914 574.568 227.017 571.075 227.171C494.088 230.539 423.028 259.176 355.338 300.217C253.798 361.765 159.736 451.25 64.4423 525.673C16.7953 562.884 -31.1497 596.325 -80.4405 620.646L-152.99 639.691M914.23 411.064C906.813 408.576 899.365 406.191 891.886 403.9C885.085 395.711 878.366 387.582 871.709 379.512C878.931 382.316 886.133 385.239 893.324 388.257C900.228 395.788 907.193 403.396 914.23 411.064ZM1108.99 526.579C1100.24 525.861 1091.47 525.16 1082.7 524.484C1074.04 517.637 1065.5 510.764 1057.08 503.883C1065.67 505.199 1074.25 506.55 1082.81 507.935C1091.43 514.167 1100.15 520.39 1108.99 526.579ZM1087.62 508.721C1096.12 510.106 1104.61 511.525 1113.1 512.961C1121.73 518.381 1130.44 523.783 1139.26 529.152C1130.61 528.4 1121.95 527.656 1113.29 526.938C1104.63 520.886 1096.08 514.808 1087.62 508.721ZM835.938 388.975C828.182 387.223 820.374 385.607 812.526 384.119C806.177 374.186 799.91 364.313 793.746 354.508C801.359 356.406 808.92 358.457 816.44 360.654C822.85 370.023 829.353 379.469 835.938 388.975ZM819.963 361.697C827.216 363.86 834.428 366.159 841.609 368.587C848.215 377.409 854.902 386.317 861.672 395.275C854.245 393.318 846.787 391.463 839.287 389.736C832.754 380.324 826.322 370.972 819.963 361.697ZM792.174 352.012C786.093 342.327 780.083 332.718 774.155 323.204C781.439 325.486 788.682 327.931 795.883 330.529C802.057 339.591 808.293 348.746 814.611 357.979C807.184 355.842 799.705 353.85 792.174 352.012ZM-82.865 651.257C-46.2616 641.375 -10.5006 626.552 24.7673 608.507C121.304 559.123 214.215 485.632 310.557 423.04C358.718 391.745 407.741 363.184 458.45 341.711C509.158 320.237 561.562 305.859 616.534 302.901C622.4 302.585 628.214 302.388 633.988 302.303C682.508 301.602 727.556 308.962 770.734 322.143C776.723 331.743 782.774 341.437 788.918 351.217C748.421 341.548 706.373 336.248 661.705 336.898C654.226 337.009 646.665 337.283 639.032 337.736C566.822 341.984 498.762 364.287 433.034 395.361C334.442 441.967 241.038 508.32 146.648 563.354C99.4533 590.871 52.0117 615.55 3.5942 633.536C-19.0068 641.931 -41.8338 648.864 -64.9485 653.941L-82.865 651.257ZM-2.85736 601.796C94.1113 547.206 187.114 465.945 284.011 397.01C332.449 362.543 381.863 331.153 433.188 307.714C484.513 284.274 537.749 268.785 593.871 266.049C598.402 265.827 602.891 265.681 607.349 265.622C659.065 264.869 706.414 274.461 751.554 291.361C757.338 300.627 763.183 310.014 769.091 319.494C726.426 306.714 681.871 299.576 633.947 300.277C628.142 300.362 622.287 300.559 616.38 300.875C542.536 304.85 473.418 329.273 406.991 363.663C307.342 415.253 213.64 489.299 118.859 550.779C71.4794 581.519 23.8324 609.113 -24.9242 629.211L-2.86764 601.796M-59.2777 654.779C-21.1642 645.94 16.1172 632.177 52.9055 615.243C148.919 571.065 241.665 505.319 337.37 449.07C385.212 420.946 433.794 395.198 483.845 375.691C533.907 356.192 585.427 342.933 639.217 339.77C646.809 339.326 654.329 339.052 661.767 338.941C706.979 338.283 749.51 343.745 790.49 353.713C796.695 363.586 802.992 373.536 809.392 383.547C771.433 376.571 732.261 372.844 691.138 373.443C681.44 373.588 671.629 373.964 661.705 374.605C591.21 379.11 524.27 399.293 459.323 427.05C361.903 468.68 268.92 527.357 175.023 575.946C128.074 600.249 80.9 622.03 32.8523 637.905C8.18633 646.06 -16.7159 652.65 -41.9263 657.241L-59.2777 654.779ZM-35.5672 658.122C4.24142 650.377 43.2179 637.742 81.7115 622.005C177.078 583.007 269.547 524.98 364.491 475.066C459.436 425.135 556.805 383.333 661.89 376.622C671.762 375.99 681.522 375.605 691.179 375.469C732.836 374.862 772.481 378.708 810.902 385.897C817.364 395.993 823.929 406.149 830.617 416.339C795.842 411.688 760.163 409.286 723.097 409.825C710.359 410.013 697.445 410.543 684.357 411.449C615.671 416.202 549.964 434.256 485.91 458.696C389.835 495.351 297.438 546.368 204.188 588.555C131.054 621.646 57.4154 649.291 -18.8835 660.37L-35.5569 658.122M814.046 386.504C821.967 388.026 829.846 389.685 837.674 391.48C844.352 401.097 851.132 410.773 858.015 420.484C849.941 419.125 841.825 417.869 833.647 416.749C827 406.628 820.467 396.54 814.036 386.504M841.044 392.257C848.636 394.035 856.187 395.942 863.696 397.96C870.579 407.055 877.555 416.21 884.643 425.408C876.887 423.853 869.09 422.382 861.251 421.032C854.409 411.397 847.68 401.797 841.044 392.257ZM867.323 398.925C875.028 401.028 882.691 403.259 890.335 405.593C897.403 414.107 904.563 422.681 911.816 431.29C903.936 429.46 896.026 427.725 888.075 426.101C881.058 416.997 874.144 407.935 867.323 398.925ZM914.035 433.914C921.421 442.659 928.91 451.438 936.513 460.234C928.294 458.867 920.034 457.576 911.744 456.37C904.378 447.095 897.136 437.829 890.006 428.597C898.05 430.264 906.053 432.042 914.035 433.914ZM991.197 492.701C982.66 491.658 974.092 490.676 965.504 489.752C957.583 480.922 949.806 472.091 942.142 463.261C950.495 464.705 958.826 466.219 967.127 467.809C975.027 476.101 983.04 484.401 991.197 492.701ZM970.948 468.544C979.28 470.168 987.591 471.852 995.881 473.604C1003.95 481.229 1012.1 488.863 1020.39 496.488C1011.88 495.317 1003.34 494.197 994.782 493.137C986.718 484.948 978.777 476.742 970.948 468.544ZM940.036 460.833C932.506 452.131 925.079 443.454 917.764 434.803C925.777 436.718 933.759 438.718 941.721 440.813C949.282 448.934 956.946 457.089 964.713 465.261C956.515 463.714 948.286 462.235 940.036 460.833ZM938.608 462.671C946.324 471.57 954.162 480.494 962.134 489.402C953.597 488.504 945.019 487.666 936.42 486.906C928.674 477.511 921.082 468.107 913.603 458.721C921.976 459.952 930.297 461.269 938.608 462.671ZM964.158 491.659C972.233 500.643 980.451 509.627 988.813 518.586C979.968 518.176 971.102 517.808 962.196 517.5C954.049 508.063 946.067 498.583 938.228 489.102C946.899 489.88 955.549 490.735 964.158 491.659ZM967.538 492.018C976.208 492.958 984.858 493.966 993.478 495.035C1001.74 503.412 1010.13 511.79 1018.67 520.133C1009.82 519.629 1000.95 519.159 992.05 518.731C983.728 509.85 975.561 500.942 967.538 492.018ZM997.094 495.479C1005.75 496.565 1014.39 497.711 1023.02 498.908C1031.44 506.627 1039.98 514.337 1048.67 522.014C1039.83 521.415 1030.97 520.86 1022.1 520.338C1013.62 512.072 1005.29 503.789 997.094 495.479ZM1026.93 499.463C1035.57 500.677 1044.19 501.934 1052.79 503.241C1061.33 510.234 1069.99 517.227 1078.78 524.185C1069.97 523.518 1061.15 522.886 1052.3 522.279C1043.71 514.696 1035.26 507.08 1026.93 499.463ZM1053.98 501.344C1045.76 494.599 1037.64 487.846 1029.62 481.101C1037.82 482.999 1046 484.948 1054.18 486.94C1062.42 493.052 1070.73 499.164 1079.15 505.276C1070.76 503.934 1062.37 502.618 1053.98 501.344ZM1049.72 500.703C1041.25 499.429 1032.77 498.207 1024.27 497.018C1016.1 489.521 1008.04 482.007 1000.09 474.51C1008.37 476.288 1016.63 478.118 1024.89 480.016C1033.07 486.906 1041.34 493.804 1049.72 500.703ZM997.217 471.792C989.481 464.474 981.828 457.166 974.277 449.882C982.146 452.182 989.995 454.55 997.854 456.986C1005.64 463.68 1013.52 470.39 1021.48 477.126C1013.41 475.297 1005.32 473.519 997.217 471.792ZM993.036 470.92C984.879 469.21 976.712 467.56 968.514 465.987C960.85 457.943 953.289 449.908 945.83 441.907C947.032 442.231 948.224 442.548 949.426 442.864C956.176 444.694 962.915 446.583 969.644 448.523C977.349 455.96 985.146 463.431 993.036 470.92ZM950.176 440.941C947.844 440.317 945.512 439.693 943.18 439.077C935.917 431.272 928.746 423.502 921.637 415.783C922.069 415.937 922.5 416.073 922.932 416.227C930.041 418.689 937.139 421.237 944.218 423.852C951.563 431.016 958.99 438.231 966.49 445.48C961.055 443.933 955.621 442.42 950.176 440.941ZM939.101 438C931.273 435.966 923.414 434.017 915.525 432.153C908.364 423.665 901.296 415.219 894.31 406.816C901.954 409.192 909.556 411.671 917.148 414.244C924.38 422.109 931.695 430.042 939.091 438M887.931 402.695C880.411 400.438 872.87 398.276 865.289 396.241C858.601 387.394 852.005 378.614 845.482 369.903C852.817 372.425 860.111 375.084 867.384 377.854C874.154 386.06 881.007 394.352 887.931 402.695ZM843.263 366.963C836.904 358.466 830.606 350.046 824.371 341.702C831.305 344.626 838.208 347.686 845.081 350.866C851.574 358.696 858.108 366.621 864.713 374.622C857.594 371.955 850.454 369.399 843.273 366.963M839.431 365.681C832.363 363.33 825.264 361.099 818.114 359.004C811.878 349.892 805.714 340.847 799.612 331.897C806.516 334.445 813.368 337.138 820.2 339.959C826.548 348.447 832.959 357.021 839.441 365.681M814.806 335.513C809.094 333.231 803.362 331.042 797.588 328.948C791.64 320.211 785.743 311.569 779.898 303.038C786.401 305.953 792.873 309.005 799.304 312.202C805.406 320.263 811.55 328.435 817.744 336.702C816.768 336.308 815.782 335.906 814.806 335.513ZM793.88 327.598C786.791 325.084 779.662 322.716 772.481 320.511C766.646 311.15 760.882 301.884 755.16 292.729C762.115 295.396 769.008 298.234 775.871 301.243C781.819 309.919 787.819 318.707 793.88 327.598ZM753.342 289.813C748.976 282.821 744.64 275.888 740.336 269.032C739.124 267.1 737.911 265.186 736.709 263.271C743.295 266.323 749.839 269.554 756.331 272.947C762.064 281.171 767.837 289.531 773.642 297.994C766.923 295.113 760.153 292.378 753.342 289.813ZM-30.1224 595.111C67.2263 535.29 160.23 446.258 257.63 370.964C306.325 333.316 356.098 299.114 408.009 273.708C459.919 248.294 513.956 231.693 571.198 229.188C574.66 229.034 578.102 228.94 581.523 228.889C636.412 228.094 685.888 240.284 732.826 261.484C738.425 270.357 744.065 279.35 749.756 288.463C705.181 272.11 658.366 262.843 607.319 263.587C602.819 263.655 598.299 263.792 593.738 264.014C518.301 267.699 448.187 294.233 381.103 331.94C280.477 388.513 186.56 470.27 91.4916 538.222C43.9576 572.193 -3.85387 602.711 -52.8878 624.911L-30.1224 595.111ZM-11.6204 661.327C30.1093 654.719 71.0274 643.273 111.463 628.809C206.027 594.975 298.044 544.658 392.075 501.053C486.095 457.448 582.098 420.561 684.553 413.475C697.589 412.577 710.441 412.047 723.128 411.859C760.697 411.312 796.849 413.791 832.086 418.587C838.835 428.853 845.708 439.154 852.704 449.48C822.265 446.813 791.229 445.523 759.31 445.984C742.134 446.232 724.721 446.993 707.01 448.31C573.54 458.26 449.738 511.978 326.748 563.593C265.252 589.41 203.962 614.704 141.779 633.776C96.4947 647.667 50.7481 658.25 4.10786 663.336C-1.17256 662.678 -6.41188 662.003 -11.6204 661.327ZM835.157 419.023C843.386 420.168 851.564 421.442 859.7 422.835C866.676 432.649 873.754 442.497 880.976 452.353C872.593 451.387 864.169 450.506 855.704 449.737C848.728 439.479 841.886 429.229 835.168 419.023M862.936 423.408C870.846 424.793 878.716 426.289 886.544 427.879C893.725 437.188 901.019 446.54 908.436 455.9C900.361 454.755 892.246 453.686 884.099 452.72C876.918 442.924 869.87 433.144 862.936 423.408ZM910.285 458.234C917.795 467.689 925.438 477.161 933.225 486.632C924.842 485.906 916.429 485.247 907.974 484.666C900.423 474.775 893.026 464.876 885.753 454.986C893.961 455.978 902.149 457.063 910.285 458.234ZM935.033 488.82C942.903 498.36 950.926 507.892 959.103 517.398C950.423 517.107 941.721 516.868 932.979 516.68C925.027 506.747 917.25 496.788 909.617 486.812C918.124 487.41 926.589 488.077 935.033 488.82ZM960.911 519.501C969.171 529.058 977.585 538.581 986.194 548.052C977.236 548.215 968.257 548.403 959.247 548.625C950.864 538.718 942.666 528.759 934.643 518.766C943.427 518.954 952.19 519.201 960.911 519.501ZM964.014 519.594C972.982 519.911 981.91 520.296 990.817 520.714C999.272 529.716 1007.88 538.692 1016.67 547.608C1011.16 547.667 1005.63 547.736 1000.09 547.821C996.467 547.873 992.841 547.933 989.214 547.992C980.636 538.572 972.243 529.1 964.014 519.594ZM994.063 520.86C1003.03 521.296 1011.98 521.783 1020.9 522.305C1029.53 530.699 1038.31 539.068 1047.26 547.377C1038.14 547.42 1028.98 547.488 1019.81 547.573C1011.05 538.717 1002.48 529.81 994.063 520.86ZM1024.32 522.501C1033.29 523.04 1042.23 523.613 1051.17 524.228C1059.95 531.964 1068.87 539.666 1077.95 547.317C1068.83 547.317 1059.69 547.326 1050.52 547.36C1041.63 539.128 1032.9 530.827 1024.32 522.501ZM1054.82 524.476C1063.78 525.1 1072.71 525.758 1081.63 526.442C1090.54 533.46 1099.56 540.453 1108.74 547.386C1099.64 547.351 1090.53 547.326 1081.39 547.317C1072.38 539.752 1063.53 532.135 1054.82 524.476ZM1085.58 526.75C1094.49 527.451 1103.4 528.169 1112.31 528.904C1121.28 535.161 1130.38 541.393 1139.61 547.573C1130.55 547.505 1121.48 547.454 1112.4 547.411C1103.32 540.572 1094.38 533.682 1085.58 526.75ZM1116.62 529.254C1125.49 529.998 1134.34 530.759 1143.19 531.537C1152.2 536.999 1161.3 542.419 1170.54 547.796C1161.55 547.728 1152.56 547.65 1143.56 547.591C1134.46 541.521 1125.48 535.409 1116.62 529.254ZM1148.05 531.981C1156.8 532.751 1165.54 533.528 1174.3 534.323C1183.25 538.94 1192.29 543.522 1201.45 548.069C1192.58 547.992 1183.73 547.915 1174.86 547.838C1165.81 542.598 1156.87 537.307 1148.05 531.981ZM1175.11 532.349C1166.8 528.058 1158.58 523.749 1150.42 519.424C1158.44 520.834 1166.48 522.262 1174.51 523.689C1182.79 527.331 1191.13 530.964 1199.54 534.563C1191.39 533.819 1183.24 533.084 1175.11 532.349ZM1169.51 531.836C1161.03 531.075 1152.57 530.323 1144.09 529.579C1135.52 524.382 1127.06 519.15 1118.68 513.91C1127 515.337 1135.32 516.782 1143.66 518.235C1152.2 522.792 1160.81 527.331 1169.51 531.836ZM1114.13 511.063C1106.15 506.062 1098.26 501.045 1090.44 496.027C1098.18 498.018 1105.94 500.036 1113.71 502.07C1121.71 506.438 1129.77 510.798 1137.9 515.158C1129.97 513.773 1122.05 512.414 1114.13 511.063ZM1108.6 510.132C1100.37 508.747 1092.15 507.387 1083.92 506.054C1075.76 500.138 1067.67 494.215 1059.67 488.291C1067.7 490.265 1075.75 492.282 1083.78 494.334C1091.98 499.6 1100.25 504.874 1108.6 510.132ZM1055.4 485.127C1047.81 479.494 1040.3 473.869 1032.84 468.27C1040.29 470.741 1047.75 473.262 1055.21 475.827C1062.86 480.811 1070.57 485.82 1078.34 490.829C1070.69 488.897 1063.05 486.991 1055.4 485.127ZM1049.96 483.803C1042.04 481.888 1034.11 480.024 1026.18 478.203C1018.44 471.672 1010.79 465.158 1003.21 458.662C1010.93 461.089 1018.65 463.577 1026.36 466.116C1034.16 471.989 1042.02 477.887 1049.96 483.803ZM999.22 455.242C992.039 449.079 984.92 442.941 977.862 436.846C984.982 439.71 992.101 442.633 999.23 445.608C1006.51 451.122 1013.85 456.679 1021.24 462.252C1013.9 459.867 1006.57 457.525 999.22 455.242ZM993.909 453.601C986.307 451.267 978.694 448.993 971.072 446.788C963.778 439.752 956.566 432.743 949.416 425.784C956.813 428.554 964.189 431.409 971.565 434.333C978.951 440.71 986.399 447.147 993.909 453.601ZM945.717 422.177C938.958 415.586 932.249 409.038 925.592 402.55C932.393 405.696 939.184 408.936 945.974 412.244C952.868 418.177 959.802 424.169 966.788 430.204C959.771 427.468 952.755 424.784 945.717 422.177ZM940.571 420.288C935.013 418.262 929.445 416.27 923.866 414.338C922.141 413.748 920.415 413.159 918.689 412.569C911.847 405.123 905.067 397.72 898.358 390.394C905.426 393.42 912.473 396.54 919.521 399.754C926.486 406.533 933.503 413.381 940.581 420.288M894.927 386.658C888.568 379.717 882.25 372.836 875.983 366.031C882.476 369.391 888.948 372.852 895.42 376.392C901.933 382.666 908.477 389.009 915.072 395.421C908.374 392.411 901.666 389.488 894.937 386.658M889.955 384.581C883 381.7 876.014 378.914 869.008 376.238C862.587 368.459 856.228 360.748 849.91 353.123C856.423 356.192 862.916 359.372 869.388 362.654C869.634 362.783 869.891 362.911 870.138 363.039C876.692 370.134 883.298 377.323 889.955 384.581ZM846.766 349.319C840.777 342.095 834.839 334.949 828.932 327.905C832.682 330.017 836.421 332.171 840.16 334.359C842.606 335.804 845.051 337.266 847.496 338.736C853.649 345.267 859.823 351.883 866.039 358.594C859.638 355.405 853.218 352.302 846.766 349.319ZM841.979 347.122C835.312 344.096 828.624 341.181 821.905 338.394C815.885 330.35 809.906 322.383 803.968 314.527C810.45 317.81 816.902 321.229 823.323 324.776C829.507 332.128 835.722 339.574 841.979 347.122ZM801.071 310.706C800.455 309.885 799.838 309.073 799.222 308.261C794.198 301.636 789.205 295.096 784.243 288.634C790.192 292.216 796.109 295.917 802.016 299.747C807.831 306.483 813.676 313.339 819.542 320.288C813.409 316.972 807.255 313.775 801.071 310.706ZM796.479 308.44C793.222 306.859 789.955 305.303 786.688 303.79C783.689 302.405 780.668 301.046 777.648 299.721C775.049 295.925 772.45 292.147 769.861 288.394C766.83 283.992 763.81 279.632 760.79 275.298C766.851 278.547 772.881 281.932 778.891 285.454C784.726 293.002 790.582 300.661 796.479 308.44ZM759.177 272.024C758.828 271.845 758.478 271.665 758.129 271.477C752.818 263.86 747.537 256.355 742.267 248.969C747.804 252.474 753.311 256.107 758.797 259.877C763.44 265.681 768.094 271.588 772.758 277.563C773.642 278.692 774.515 279.829 775.398 280.957C770.015 277.871 764.611 274.896 759.177 272.024ZM743.901 255.252C747.157 259.851 750.424 264.502 753.701 269.186C747.394 265.963 741.034 262.894 734.634 259.988C729.292 251.534 723.991 243.199 718.701 234.984C724.885 238.412 731.028 242.002 737.131 245.764C739.38 248.909 741.641 252.072 743.89 255.252M732.138 240.224C726.888 237.104 721.598 234.112 716.286 231.24C711.232 223.418 706.208 215.724 701.195 208.176C706.917 211.92 712.598 215.827 718.259 219.896C723.478 226.897 728.707 234.035 733.946 241.31C733.35 240.951 732.754 240.583 732.148 240.224M-11.1889 523.416C72.8766 449.677 155.083 359.398 242.343 286.71C285.973 250.363 330.857 218.426 377.826 195.149C424.805 171.863 473.849 157.245 525.862 155.484C527.742 155.415 529.623 155.373 531.492 155.347C574.475 154.723 613.503 163.75 650.281 180.146C665.999 187.156 681.306 195.507 696.326 205.039C701.565 212.878 706.814 220.862 712.074 228.992C664.253 203.893 613.421 189.267 556.251 190.096C553.652 190.139 551.052 190.207 548.433 190.31C469.915 193.362 397.931 224.102 329.675 268.46C227.283 334.992 133.129 432.204 37.6396 513.115C-10.0999 553.575 -58.1579 589.948 -107.685 616.388L-11.1581 523.416M-37.6629 512.397C46.5156 433.17 128.722 336.188 216.434 258.295C260.28 219.349 305.503 185.181 352.996 160.382C400.489 135.583 450.231 120.153 503.179 118.614C504.463 118.58 505.758 118.546 507.032 118.529C549.902 117.913 588.498 127.744 624.711 145.584C643.131 154.663 660.924 165.819 678.327 178.727C683.34 185.882 688.343 193.191 693.367 200.645C644.189 170.324 591.632 152.423 531.441 153.304C529.551 153.33 527.66 153.381 525.76 153.441C445.742 156.159 372.864 189.002 304.054 236.676C200.839 308.192 106.624 413.141 10.9909 500.549C-36.8205 544.257 -84.9812 583.58 -134.724 612.14L-37.6424 512.397M12.6654 664.413C56.6861 658.994 99.8951 648.804 142.642 635.69C236.159 607.002 327.487 564.354 420.357 527.041C513.227 489.727 607.627 457.756 707.236 450.344C724.885 449.028 742.247 448.275 759.362 448.027C791.763 447.557 823.282 448.899 854.183 451.661C861.251 462.047 868.463 472.441 875.819 482.836C852.088 481.776 828.048 481.358 803.588 481.708C779.384 482.059 754.77 483.17 729.672 485.179C600.559 495.488 478.873 540.299 357.629 582.938C248.754 621.235 140.248 657.771 27.1198 666.166C22.2709 665.585 17.4528 665.003 12.6654 664.413ZM857.183 451.917C865.71 452.703 874.185 453.601 882.62 454.601C889.913 464.543 897.341 474.502 904.923 484.452C896.242 483.871 887.51 483.375 878.757 482.965C871.422 472.621 864.231 462.26 857.183 451.917ZM906.556 486.598C914.21 496.625 922.017 506.635 929.999 516.62C921.021 516.449 912.001 516.338 902.94 516.287C895.204 505.9 887.643 495.488 880.236 485.068C889.051 485.495 897.824 486.008 906.556 486.598ZM931.653 518.697C939.708 528.733 947.916 538.752 956.33 548.702C947.063 548.95 937.766 549.224 928.428 549.54C920.26 539.188 912.278 528.775 904.471 518.329C913.573 518.389 922.634 518.509 931.653 518.697ZM958.004 550.685C966.48 560.687 975.14 570.628 984.016 580.502C974.472 581.169 964.897 581.861 955.302 582.562C946.663 572.287 938.228 561.926 929.989 551.515C939.358 551.198 948.697 550.925 958.004 550.685ZM960.942 550.608C969.993 550.395 979.023 550.198 988.022 550.044C996.693 559.55 1005.55 569.004 1014.61 578.382C1005.39 579.006 996.159 579.647 986.892 580.297C978.037 570.475 969.397 560.576 960.942 550.608ZM991.043 549.993C994.073 549.941 997.104 549.89 1000.13 549.847C1006.32 549.762 1012.49 549.685 1018.66 549.625C1027.51 558.576 1036.55 567.466 1045.78 576.279C1036.4 576.903 1026.99 577.536 1017.56 578.177C1008.53 568.859 999.693 559.456 991.043 549.993ZM1021.79 549.591C1031.03 549.497 1040.24 549.437 1049.44 549.395C1058.46 557.738 1067.64 566.021 1077.02 574.219C1067.64 574.835 1058.24 575.45 1048.81 576.082C1039.61 567.32 1030.62 558.49 1021.79 549.591ZM1052.71 549.386C1061.95 549.352 1071.17 549.343 1080.37 549.343C1089.52 557.02 1098.83 564.636 1108.32 572.176C1098.95 572.783 1089.57 573.398 1080.16 574.014C1070.83 565.876 1061.69 557.661 1052.71 549.386ZM1083.82 549.352C1093.05 549.36 1102.26 549.386 1111.45 549.429C1120.71 556.396 1130.11 563.294 1139.69 570.124C1130.34 570.74 1120.98 571.347 1111.6 571.962C1102.17 564.5 1092.91 556.951 1083.82 549.352ZM1115.12 549.454C1124.33 549.497 1133.51 549.557 1142.69 549.625C1152.01 555.823 1161.46 561.978 1171.08 568.056C1161.77 568.68 1152.46 569.295 1143.12 569.911C1133.62 563.166 1124.31 556.336 1115.12 549.454ZM1146.64 549.651C1155.79 549.719 1164.94 549.788 1174.08 549.865C1183.42 555.276 1192.89 560.636 1202.5 565.927C1193.25 566.56 1183.99 567.192 1174.73 567.816C1165.22 561.824 1155.87 555.763 1146.64 549.651ZM1178.42 549.899C1187.5 549.967 1196.56 550.044 1205.63 550.121C1214.94 554.712 1224.36 559.251 1233.89 563.721C1224.75 564.371 1215.59 565.012 1206.43 565.645C1196.97 560.456 1187.63 555.207 1178.42 549.899ZM1210.51 550.164C1219.45 550.232 1228.38 550.3 1237.32 550.369C1245.69 553.771 1254.13 557.131 1262.66 560.447C1263.5 560.781 1264.35 561.106 1265.19 561.431C1256.2 562.106 1247.21 562.764 1238.21 563.414C1228.86 559.054 1219.63 554.635 1210.51 550.164ZM1243 550.403C1251.72 550.463 1260.45 550.506 1269.17 550.54C1272.76 551.694 1276.37 552.839 1280 553.976C1285.41 555.686 1290.85 557.37 1296.32 559.037C1287.57 559.729 1278.82 560.405 1270.06 561.063C1260.95 557.567 1251.93 554.01 1243 550.403ZM1276.07 550.574C1284.43 550.6 1292.8 550.617 1301.16 550.617C1309.74 552.626 1318.37 554.609 1327.06 556.541C1318.7 557.242 1310.33 557.926 1301.97 558.592C1293.27 555.968 1284.64 553.293 1276.07 550.574ZM1292.56 548.582C1284.92 548.574 1277.27 548.548 1269.64 548.523C1261.74 545.984 1253.89 543.419 1246.11 540.829C1253.71 541.504 1261.32 542.171 1268.94 542.829C1276.78 544.77 1284.65 546.693 1292.56 548.582ZM1228.95 537.239C1221.41 536.555 1213.87 535.871 1206.34 535.187C1198.61 531.896 1190.94 528.579 1183.33 525.254C1188.41 526.16 1193.51 527.066 1198.61 527.972C1200.97 528.391 1203.32 528.81 1205.67 529.229C1213.39 531.913 1221.14 534.589 1228.95 537.239ZM1175.35 521.757C1169.12 519.013 1162.91 516.261 1156.74 513.5C1162.7 515.09 1168.68 516.688 1174.66 518.295C1180.95 520.535 1187.27 522.775 1193.62 525.006C1187.53 523.92 1181.44 522.843 1175.35 521.757ZM1166.65 520.219C1159.3 518.911 1151.94 517.611 1144.61 516.329C1137.13 512.346 1129.72 508.345 1122.35 504.353C1129.56 506.251 1136.77 508.165 1144 510.097C1151.5 513.474 1159.05 516.85 1166.65 520.219ZM1106.24 497.984C1099.13 496.138 1092.03 494.3 1084.93 492.496C1077.78 487.897 1070.68 483.298 1063.63 478.725C1070.56 481.118 1077.48 483.546 1084.43 485.999C1091.65 489.983 1098.92 493.984 1106.24 497.984ZM1048.12 471.202C1041.3 468.885 1034.48 466.603 1027.66 464.355C1020.87 459.234 1014.12 454.131 1007.42 449.053C1014.02 451.857 1020.64 454.704 1027.27 457.593C1034.18 462.098 1041.13 466.637 1048.12 471.202ZM992.573 440.573C986.05 437.88 979.537 435.248 973.013 432.657C966.582 427.101 960.203 421.587 953.854 416.108C960.151 419.228 966.459 422.408 972.767 425.639C979.331 430.572 985.937 435.555 992.573 440.573ZM939.738 406.892C933.523 403.909 927.298 401.003 921.072 398.156C915.011 392.249 908.98 386.393 902.991 380.606C908.991 383.957 914.97 387.377 920.969 390.873C927.195 396.147 933.451 401.49 939.738 406.892ZM889.616 370.827C883.688 367.638 877.75 364.526 871.792 361.5C867.405 356.747 863.029 352.029 858.673 347.361C857.348 345.951 856.032 344.54 854.718 343.13C860.429 346.652 866.141 350.268 871.843 353.952C877.74 359.5 883.657 365.133 889.605 370.827M831.243 321.673C834.849 325.418 838.465 329.204 842.092 333.025C836.431 329.7 830.76 326.46 825.069 323.315C819.655 316.886 814.272 310.535 808.909 304.277C809.772 304.859 810.646 305.432 811.509 306.013C816.101 309.099 820.693 312.261 825.275 315.484C827.268 317.536 829.261 319.596 831.254 321.673M797.034 294.002C791.609 290.574 786.154 287.249 780.689 284.026C775.563 277.401 770.457 270.879 765.361 264.45C770.601 268.152 775.83 271.973 781.038 275.897C786.36 281.821 791.692 287.864 797.034 294.002ZM754.215 254.158C749.171 250.79 744.096 247.533 739 244.387C734.162 237.642 729.344 231 724.525 224.478C729.364 228.077 734.182 231.787 738.98 235.599C744.055 241.669 749.14 247.858 754.225 254.158M713.995 214.211C711.16 212.237 708.314 210.288 705.458 208.39C703.044 206.783 700.62 205.21 698.185 203.663C693.552 196.721 688.919 189.908 684.285 183.215C689.432 187.164 694.538 191.268 699.613 195.508C704.411 201.611 709.198 207.851 713.995 214.211ZM-64.0239 501.395C20.2573 416.663 102.443 312.98 190.576 229.881C234.638 188.327 280.19 151.928 328.186 125.607C376.192 99.2952 426.603 83.0615 480.506 81.7536C481.298 81.7365 482.078 81.7196 482.869 81.711C525.595 81.0955 563.76 91.7296 599.398 111.015C620.52 122.444 640.737 136.925 660.431 153.894C665.105 160.168 669.759 166.597 674.413 173.162C624.115 137.113 570.089 115.58 506.991 116.503C505.696 116.52 504.392 116.546 503.087 116.588C462.343 117.768 423.511 127.094 386.219 142.499C320.954 169.46 260.362 215.006 202.134 268.177C114.791 347.943 32.7392 444.907 -51.5214 522.227L-64.0342 501.395M27.0479 668.2C30.0374 668.551 33.0474 668.91 36.0575 669.26C35.8623 669.269 35.6671 669.269 35.4719 669.277C34.6603 669.192 33.8487 669.106 33.0269 669.021C30.6743 668.773 28.332 668.525 26 668.277C26.3493 668.251 26.6986 668.226 27.0376 668.2M37.3519 667.371C147.357 657.6 252.894 621.979 358.584 584.81C479.849 542.154 601.329 497.454 729.909 487.196C754.944 485.196 779.487 484.093 803.639 483.743C828.593 483.375 853.115 483.828 877.308 484.94C884.736 495.403 892.317 505.849 900.063 516.269C888.896 516.227 877.668 516.278 866.378 516.44C829.178 516.979 791.25 518.723 752.335 522.04C628.338 532.605 509.569 568.577 390.893 602.326C278.628 634.246 166.465 664.174 50.0598 668.833C45.8067 668.345 41.5639 667.858 37.3519 667.371ZM391.684 604.233C510.391 570.475 628.985 534.572 752.582 524.049C791.424 520.74 829.281 519.005 866.419 518.466C878.212 518.295 889.924 518.244 901.584 518.304C909.402 528.793 917.404 539.239 925.592 549.634C876.497 551.352 826.446 554.216 774.987 558.883C657.483 569.543 543.111 596.795 428.493 621.791C313.886 646.795 199.031 669.534 80.5712 671.261C78.0234 671.295 75.4654 671.32 72.9177 671.338C69.5686 670.978 66.2196 670.611 62.8602 670.243C175.146 663.994 283.456 635.007 391.674 604.233M429.11 623.757C543.758 598.753 658.017 571.535 775.244 560.901C827.144 556.199 877.616 553.327 927.133 551.608C935.383 562.063 943.837 572.45 952.487 582.768C901.789 586.495 850.269 590.675 797.629 595.744C581.42 616.568 370.152 670.773 149.689 673.97C131.783 674.227 113.815 674.15 95.7858 673.688C93.8339 673.5 91.8923 673.303 89.9506 673.107C205.452 670.354 317.461 648.103 429.099 623.757M149.751 676.005C370.665 672.791 582.016 618.551 797.927 597.77C851.019 592.658 902.971 588.444 954.111 584.691C962.802 595.017 971.698 605.25 980.831 615.388C928.058 621.338 874.596 627.014 820.313 632.613C637.655 651.035 454.207 676.039 266.043 678.766C218.704 679.458 171.068 678.732 123.071 676.142C131.989 676.185 140.885 676.142 149.761 676.005M956.915 584.486C966.552 583.785 976.157 583.101 985.742 582.425C994.628 592.273 1003.73 602.044 1013.05 611.712C1003.26 612.849 993.426 613.969 983.584 615.072C974.472 604.976 965.586 594.769 956.915 584.486ZM988.608 582.212C997.916 581.562 1007.2 580.921 1016.46 580.288C1025.53 589.632 1034.8 598.89 1044.29 608.045C1034.84 609.173 1025.36 610.276 1015.86 611.379C1006.57 601.753 997.484 592.025 988.608 582.212ZM1019.41 580.092C1028.89 579.442 1038.35 578.809 1047.78 578.185C1057.01 586.956 1066.43 595.641 1076.05 604.224C1066.44 605.395 1056.81 606.558 1047.15 607.712C1037.69 598.599 1028.45 589.384 1019.41 580.092ZM1050.81 577.98C1060.29 577.356 1069.76 576.732 1079.2 576.117C1088.55 584.263 1098.09 592.325 1107.83 600.292C1098.23 601.497 1088.63 602.694 1078.99 603.865C1069.4 595.333 1060.01 586.7 1050.81 577.98ZM1082.34 575.92C1091.81 575.296 1101.26 574.681 1110.7 574.065C1120.16 581.545 1129.79 588.939 1139.62 596.24C1130.05 597.479 1120.46 598.71 1110.85 599.924C1101.15 592.017 1091.65 584.007 1082.34 575.92ZM1113.98 573.843C1123.44 573.228 1132.88 572.612 1142.31 571.988C1145.39 574.176 1148.48 576.356 1151.59 578.528C1158.12 583.075 1164.72 587.572 1171.4 592.034C1161.87 593.316 1152.31 594.581 1142.74 595.821C1132.97 588.589 1123.39 581.255 1113.98 573.843ZM1145.76 571.766C1155.19 571.142 1164.61 570.518 1174.01 569.894C1177.4 572.031 1180.82 574.159 1184.25 576.271C1190.5 580.117 1196.79 583.93 1203.17 587.7C1193.68 589.016 1184.18 590.315 1174.66 591.598C1164.84 585.075 1155.22 578.459 1145.76 571.766ZM1177.68 569.646C1187.06 569.013 1196.42 568.38 1205.79 567.731C1209.58 569.808 1213.39 571.868 1217.22 573.92C1223.06 577.049 1228.96 580.143 1234.91 583.212C1225.49 584.571 1216.05 585.905 1206.58 587.221C1196.79 581.451 1187.16 575.587 1177.68 569.646ZM1209.75 567.457C1219.07 566.816 1228.37 566.158 1237.67 565.491C1239.21 566.209 1240.76 566.927 1242.31 567.645C1250.32 571.338 1258.4 574.988 1266.58 578.57C1257.25 579.964 1247.9 581.331 1238.53 582.69C1228.8 577.69 1219.21 572.612 1209.75 567.457ZM1242.01 565.175C1251.22 564.508 1260.43 563.833 1269.63 563.14C1279.03 566.748 1288.53 570.295 1298.15 573.766C1288.94 575.193 1279.72 576.596 1270.49 577.98C1260.88 573.792 1251.39 569.517 1242.01 565.175ZM1274.52 562.773C1283.57 562.08 1292.61 561.379 1301.65 560.653C1310.87 563.431 1320.16 566.158 1329.55 568.808C1320.52 570.261 1311.49 571.689 1302.44 573.099C1293.03 569.723 1283.73 566.278 1274.52 562.773ZM1307.34 560.199C1316.15 559.49 1324.95 558.755 1333.75 558.011C1342.65 559.96 1351.62 561.858 1360.66 563.704C1351.91 565.166 1343.16 566.603 1334.38 568.022C1325.29 565.474 1316.28 562.867 1307.34 560.199ZM1340.68 557.413C1349.08 556.686 1357.49 555.942 1365.89 555.173C1374.29 556.319 1382.75 557.421 1391.25 558.481C1382.93 559.926 1374.62 561.354 1366.3 562.756C1357.7 561.02 1349.17 559.242 1340.68 557.413ZM1374.98 554.335C1382.69 553.617 1390.39 552.891 1398.1 552.13C1405.66 552.532 1413.24 552.899 1420.84 553.241C1413.28 554.601 1405.72 555.951 1398.16 557.276C1390.39 556.336 1382.67 555.353 1374.98 554.335ZM1339.41 548.445C1337.43 548.454 1335.46 548.463 1333.48 548.48C1331.44 548.172 1329.41 547.873 1327.39 547.565C1331.38 547.856 1335.39 548.155 1339.41 548.445ZM1275.63 541.35C1273.57 541.179 1271.5 541 1269.43 540.82C1267.31 540.29 1265.18 539.76 1263.08 539.239C1267.25 539.948 1271.44 540.649 1275.63 541.35ZM1212.64 528.382C1210.56 528.015 1208.49 527.647 1206.4 527.28C1204.27 526.536 1202.15 525.792 1200.03 525.049C1204.22 526.16 1208.42 527.271 1212.64 528.382ZM1151.06 509.849C1149.02 509.302 1146.99 508.764 1144.96 508.225C1142.89 507.293 1140.83 506.362 1138.76 505.43C1142.85 506.9 1146.95 508.371 1151.06 509.849ZM1091.4 486.256C1089.46 485.563 1087.52 484.88 1085.58 484.196C1083.6 483.102 1081.63 482.016 1079.67 480.93C1083.57 482.7 1087.49 484.478 1091.4 486.256ZM1034.11 458.277C1032.27 457.473 1030.44 456.678 1028.6 455.883C1026.74 454.67 1024.89 453.456 1023.03 452.25C1026.72 454.251 1030.41 456.259 1034.11 458.277ZM979.455 426.691C977.718 425.793 975.982 424.904 974.236 424.015C972.479 422.69 970.733 421.382 968.976 420.066C972.459 422.263 975.951 424.468 979.444 426.691M927.524 392.223C925.87 391.249 924.216 390.283 922.562 389.317C921.37 388.308 920.178 387.3 918.997 386.299C918.524 385.898 918.041 385.496 917.569 385.094C920.887 387.453 924.205 389.83 927.524 392.223ZM878.284 355.568C876.692 354.525 875.1 353.49 873.517 352.456C871.925 350.96 870.333 349.464 868.74 347.977C871.925 350.482 875.1 353.012 878.284 355.568ZM831.716 317.391C830.154 316.271 828.583 315.159 827.011 314.057C825.439 312.441 823.867 310.834 822.306 309.236C825.439 311.92 828.583 314.638 831.716 317.391ZM787.51 278.076C785.959 276.888 784.408 275.708 782.857 274.537C781.305 272.811 779.754 271.092 778.203 269.383C781.305 272.238 784.408 275.136 787.51 278.076ZM745.524 238.061C743.962 236.796 742.39 235.531 740.829 234.291C739.267 232.428 737.716 230.581 736.165 228.752C739.288 231.804 742.411 234.916 745.524 238.061ZM705.52 197.619C704.185 196.482 702.849 195.354 701.513 194.242C700.178 192.541 698.853 190.857 697.517 189.181C700.188 191.951 702.859 194.764 705.52 197.619ZM668.475 158.006C666.451 156.193 664.417 154.398 662.373 152.637C660.4 149.995 658.428 147.371 656.455 144.781C660.482 149.072 664.479 153.492 668.475 158.006ZM-116.551 479.392C-32.1051 383.641 49.9982 266.519 138.954 172.991C183.437 126.231 229.625 85.3699 278.618 56.0232C327.621 26.6765 379.398 8.85278 435.161 8.04068C477.579 7.42519 514.86 19.6667 549.316 41.8328C577.711 60.1007 604.144 85.1305 629.786 115.221C628.851 114.375 627.916 113.511 626.971 112.673C602.233 90.584 576.458 72.8975 548.751 60.8442C521.055 48.791 491.427 42.3711 459.087 42.8412C458.655 42.8498 458.214 42.8585 457.772 42.8671C415.559 43.645 375.556 53.809 337.339 70.9742C270.451 101.022 208.986 152.475 150.244 212.784C62.1411 303.26 -19.8287 413.689 -104.295 501.806L-116.551 479.392ZM498.187 690.648C389.034 692.238 278.31 688.905 166.27 680.006C199.709 681.066 232.964 681.271 266.074 680.792C454.464 678.057 638.005 653.035 820.6 634.622C875.356 628.98 929.27 623.244 982.495 617.243C991.752 627.484 1001.25 637.622 1010.99 647.641C844.824 672.867 673.529 688.109 498.187 690.648ZM1013.74 647.231C1004.01 637.246 994.525 627.142 985.28 616.927C995.152 615.807 1004.99 614.687 1014.83 613.55C1024.28 623.312 1033.96 632.972 1043.89 642.504C1033.86 644.111 1023.8 645.692 1013.74 647.231ZM1046.67 642.059C1036.76 632.57 1027.09 622.945 1017.66 613.217C1027.18 612.114 1036.7 611.003 1046.18 609.875C1055.79 619.124 1065.65 628.262 1075.73 637.264C1066.06 638.896 1056.37 640.495 1046.67 642.059ZM1078.54 636.793C1068.48 627.826 1058.66 618.731 1049.07 609.533C1058.75 608.379 1068.42 607.216 1078.08 606.036C1087.63 614.516 1097.4 622.894 1107.39 631.143C1107.6 631.322 1107.83 631.502 1108.04 631.69C1098.23 633.425 1088.39 635.118 1078.54 636.793ZM1110.9 631.177C1100.71 622.8 1090.76 614.285 1081.03 605.677C1090.71 604.489 1100.37 603.283 1110.01 602.07C1119.52 609.806 1129.23 617.448 1139.14 624.962C1139.52 625.262 1139.92 625.552 1140.3 625.843C1130.52 627.655 1120.72 629.433 1110.9 631.177ZM1143.22 625.304C1132.94 617.559 1122.89 609.678 1113.05 601.693C1122.71 600.471 1132.35 599.232 1141.98 597.975C1151.48 605.002 1161.16 611.917 1171.03 618.731C1171.51 619.073 1172.02 619.406 1172.5 619.739C1162.76 621.629 1153 623.483 1143.22 625.304ZM1175.5 619.175C1165.16 612.097 1155.04 604.89 1145.11 597.582C1154.76 596.325 1164.37 595.043 1173.98 593.752C1184 600.411 1194.22 606.968 1204.63 613.396C1194.93 615.354 1185.23 617.286 1175.5 619.175ZM1207.71 612.764C1197.37 606.395 1187.22 599.907 1177.24 593.307C1186.85 592.017 1196.43 590.7 1206.01 589.367C1216.06 595.274 1226.28 601.086 1236.68 606.788C1227.05 608.814 1217.39 610.806 1207.71 612.764ZM1239.89 606.122C1229.57 600.488 1219.42 594.744 1209.43 588.897C1218.98 587.563 1228.53 586.204 1238.05 584.827C1248.09 589.974 1258.28 595.017 1268.64 599.958C1259.08 602.044 1249.5 604.096 1239.89 606.122ZM1272.01 599.214C1261.74 594.342 1251.64 589.367 1241.69 584.298C1251.17 582.921 1260.64 581.519 1270.1 580.109C1280.1 584.451 1290.23 588.717 1300.5 592.872C1291.03 595.017 1281.53 597.129 1272.01 599.214ZM1304.08 592.059C1293.93 587.973 1283.91 583.785 1274.03 579.519C1283.42 578.1 1292.8 576.664 1302.17 575.21C1312.06 578.75 1322.08 582.212 1332.22 585.571C1322.86 587.768 1313.48 589.922 1304.08 592.059ZM1336.08 584.665C1326.09 581.374 1316.23 577.997 1306.48 574.535C1315.74 573.082 1324.98 571.612 1334.22 570.124C1343.96 572.843 1353.79 575.493 1363.73 578.057C1354.54 580.288 1345.31 582.494 1336.08 584.665ZM1368.01 577.04C1358.27 574.552 1348.62 571.98 1339.08 569.338C1348.15 567.859 1357.21 566.363 1366.25 564.841C1375.76 566.748 1385.35 568.594 1395.02 570.364C1386.03 572.612 1377.03 574.843 1368.01 577.04ZM1399.82 569.167C1390.44 567.474 1381.15 565.705 1371.91 563.884C1380.69 562.396 1389.47 560.884 1398.23 559.353C1407.4 560.465 1416.63 561.516 1425.93 562.516C1417.25 564.756 1408.55 566.97 1399.82 569.167ZM1456.28 554.566C1448.06 556.746 1439.82 558.909 1431.56 561.054C1422.7 560.131 1413.91 559.148 1405.17 558.122C1413.5 556.644 1421.83 555.156 1430.16 553.635C1438.83 553.994 1447.53 554.301 1456.28 554.566ZM1447.96 548.266C1441.96 549.386 1435.95 550.497 1429.94 551.591C1423.82 551.343 1417.71 551.078 1411.62 550.779C1417.83 550.155 1424.05 549.514 1430.26 548.856C1436.16 548.676 1442.06 548.48 1447.96 548.266Z" fill="white"/>
</mask>
<g mask="url(#mask0_112_311)">
<path d="M1439 746V-21H0V746H1439Z" fill="white"/>
</g>
</g>
<defs>
<clipPath id="clip0_112_311">
<rect width="1439" height="746" fill="white"/>
</clipPath>
</defs>
</svg>
