<svg width="1440" height="128" viewBox="0 0 1440 128" fill="none" xmlns="http://www.w3.org/2000/svg">
<path d="M409.19 127.93H346.79C350.29 121.41 352.27 113.95 352.27 106.02C352.27 80.4895 331.73 59.8096 306.4 59.8096C281.07 59.8096 260.53 80.4895 260.53 106.02C260.53 113.95 262.51 121.41 266.01 127.93H203.61C202.13 120.86 201.35 113.53 201.35 106.01C201.35 47.5698 248.38 0.189453 306.4 0.189453C364.42 0.189453 411.45 47.5698 411.45 106.01C411.45 113.53 410.67 120.86 409.19 127.93Z" fill="#EE522E"/>
<path d="M541.47 127.93H482.1V60.0098H421V0.649414H482.1V0.479492H541.47V0.649414H602.57V60.0098H541.47V127.93Z" fill="#EE522E"/>
<path d="M180.04 127.93H0V1.2793H63.22V72.5098H116.82V0.649414H180.04V127.93Z" fill="#EE522E"/>
<path d="M754.22 127.93H691V0H754.22V127.93Z" fill="#EE522E"/>
<path d="M992.57 127.93H843.92L877.01 0.429688H959.48L992.57 127.93ZM918.25 61.5L902.19 123.359H934.3L918.25 61.5Z" fill="#EE522E"/>
<path d="M1150.96 127.93H1093.88L1126.96 0.429688H1184.05L1150.96 127.93ZM1086.69 127.93H1029.61L996.52 0.429688H1053.6L1086.69 127.93Z" fill="#EE522E"/>
<path d="M1337.18 127.93H1185.49L1218.51 0.689453H1304.16L1337.18 127.93ZM1261.33 55.6201L1243.69 123.62H1278.98L1261.33 55.6201ZM1373.18 93.9492L1349.37 75L1365.39 54.3496L1341.13 46.29L1350.91 17.4795L1374.49 25.3096V0.689453H1404.92V25.7393L1429.06 17.3701L1439.09 46.0996L1414.58 54.5996L1429.81 75.8594L1404.88 93.3096L1389.98 72.4893L1373.18 93.9492Z" fill="#EE522E"/>
</svg>
