<svg id="a" xmlns="http://www.w3.org/2000/svg" viewBox="0 0 384.71 384.71">
<defs><style>.b{fill:#fff;}.c{fill:#ed522d;}</style></defs>
<rect class="c" width="384.71" height="384.71"/>
<path class="b" d="M355.57,215.56l-3.94-11.29-9.48,3.29v-9.85h-11.96v9.68l-9.27-3.08-3.84,11.32,9.53,3.17-6.29,8.11,9.36,7.44,6.6-8.43,5.86,8.18,9.8-6.86-5.98-8.36,9.63-3.34ZM324.72,277.26l-20.64-79.54h-10.6s-11.83,0-11.83,0h-10.6l-20.64,79.54h22.43s3.22-12.39,3.22-12.39h23.02l3.22,12.39h22.43ZM294.19,246.02h-13.24l6.62-25.51,6.62,25.51ZM277.87,130.86h24.01v-23.33h-24.01v-.06h-23.33v.06h-24.01v23.33h24.01v56.73s23.33,0,23.33,0v-56.73ZM226.15,148.93c0-22.97-18.48-41.58-41.28-41.58s-41.28,18.62-41.28,41.58,18.48,41.59,41.28,41.59,41.28-18.62,41.28-41.59M202.89,148.93c0,10.03-8.07,18.16-18.02,18.16s-18.02-8.13-18.02-18.16,8.07-18.16,18.02-18.16,18.02,8.13,18.02,18.16M150.38,197.72h-10.6l-20.64,79.54h22.43l3.22-12.39h23.02l3.22,12.39h22.43l-20.64-79.54h-22.43ZM149.68,246.02l6.62-25.51,6.62,25.51h-13.24ZM110.25,187.34h24.84v-79.81h-24.84v31.43h-21.06s0-31.18,0-31.18h-24.85v79.81h24.85v-29.79s21.06,0,21.06,0v29.53ZM89.19,197.55h-24.85v79.81h24.85v-.1h23.88v-23.33h-23.88v-56.38ZM186.8,197.72l20.64,79.54h29.42l20.64-79.54h-22.43l-12.92,49.79-12.92-49.79h-22.43Z"/>
</svg>