<svg width="120" height="815" viewBox="0 0 120 815" fill="none" xmlns="http://www.w3.org/2000/svg">
<path d="M115.418 713.035V748.843H74.7095V779.192H115.778V815H0.728858V779.192H41.0783V748.843H0.369471V713.035H115.418Z" fill="url(#paint0_linear_112_297)"/>
<path d="M60.0548 615.501C74.5096 615.501 86.2291 627.128 86.2291 641.479C86.2291 655.83 74.5096 667.456 60.0548 667.456C45.6001 667.456 33.8806 655.83 33.8806 641.479C33.8806 627.128 45.6001 615.501 60.0548 615.501ZM60.0548 581.978C26.9428 581.978 0.109671 608.615 0.109671 641.469C0.109671 674.323 26.9527 700.959 60.0548 700.959C93.157 700.959 120 674.323 120 641.469C120 608.615 93.157 581.978 60.0548 581.978Z" fill="url(#paint1_linear_112_297)"/>
<path d="M33.9906 473.747V508.347H115.768V541.969H33.9906V576.57H0.359387V541.969H0.269548V508.347H0.359387V473.747H33.9906Z" fill="url(#paint2_linear_112_297)"/>
<path d="M114.909 357.181V391.592H115.049V427.4H0V391.592H81.2778V357.181H114.909Z" fill="url(#paint3_linear_112_297)"/>
<path d="M70.0272 285.166V305.156L31.5046 295.166L70.0272 285.176V285.166ZM115.058 241.165L0.39896 270.915V319.427L115.058 349.177V316.852L97.1897 312.212V278.13L115.058 273.49V241.165Z" fill="url(#paint4_linear_112_297)"/>
<path d="M114.909 174.18L0.249564 144.439V176.764L80.3096 197.533L0.249564 218.311V250.636L114.909 220.886V174.18Z" fill="url(#paint5_linear_112_297)"/>
<path d="M70.0272 90.6678V110.658L31.5046 100.668L70.0272 90.6778V90.6678ZM115.058 46.6664L0.39896 76.4165V124.929L115.058 154.679V122.354L97.1897 117.713V83.632L115.058 78.9913V46.6664Z" fill="url(#paint6_linear_112_297)"/>
<path d="M9.84244 5.67858L26.114 0L30.9256 13.8721L42.9745 5.24945L52.8572 19.371L41.0678 27.814L53.2166 37.3249L42.4854 50.8078L30.7858 41.736L26.2138 55.4784L9.89237 49.9395L14.3346 36.5864H0.388968V19.3511H14.5841L9.84244 5.67858Z" fill="url(#paint7_linear_112_297)"/>
<defs>
<linearGradient id="paint0_linear_112_297" x1="0" y1="407.5" x2="120" y2="407.5" gradientUnits="userSpaceOnUse">
<stop stop-color="#ED522D" stop-opacity="0"/>
<stop offset="1" stop-color="#ED522D"/>
</linearGradient>
<linearGradient id="paint1_linear_112_297" x1="0" y1="407.5" x2="120" y2="407.5" gradientUnits="userSpaceOnUse">
<stop stop-color="#ED522D" stop-opacity="0"/>
<stop offset="1" stop-color="#ED522D"/>
</linearGradient>
<linearGradient id="paint2_linear_112_297" x1="0" y1="407.5" x2="120" y2="407.5" gradientUnits="userSpaceOnUse">
<stop stop-color="#ED522D" stop-opacity="0"/>
<stop offset="1" stop-color="#ED522D"/>
</linearGradient>
<linearGradient id="paint3_linear_112_297" x1="0" y1="407.5" x2="120" y2="407.5" gradientUnits="userSpaceOnUse">
<stop stop-color="#ED522D" stop-opacity="0"/>
<stop offset="1" stop-color="#ED522D"/>
</linearGradient>
<linearGradient id="paint4_linear_112_297" x1="0" y1="407.5" x2="120" y2="407.5" gradientUnits="userSpaceOnUse">
<stop stop-color="#ED522D" stop-opacity="0"/>
<stop offset="1" stop-color="#ED522D"/>
</linearGradient>
<linearGradient id="paint5_linear_112_297" x1="0" y1="407.5" x2="120" y2="407.5" gradientUnits="userSpaceOnUse">
<stop stop-color="#ED522D" stop-opacity="0"/>
<stop offset="1" stop-color="#ED522D"/>
</linearGradient>
<linearGradient id="paint6_linear_112_297" x1="0" y1="407.5" x2="120" y2="407.5" gradientUnits="userSpaceOnUse">
<stop stop-color="#ED522D" stop-opacity="0"/>
<stop offset="1" stop-color="#ED522D"/>
</linearGradient>
<linearGradient id="paint7_linear_112_297" x1="0" y1="407.5" x2="120" y2="407.5" gradientUnits="userSpaceOnUse">
<stop stop-color="#ED522D" stop-opacity="0"/>
<stop offset="1" stop-color="#ED522D"/>
</linearGradient>
</defs>
</svg>
