<svg width="126" height="822" viewBox="0 0 126 822" fill="none" xmlns="http://www.w3.org/2000/svg">
<path d="M119.918 715.358V754.166H79.209V781.515H120.277V820.323H2.22852V781.515H42.5781V754.166H1.86914V715.358H119.918ZM63.0547 584.301C96.9744 584.301 124.5 611.598 124.5 645.292C124.5 678.985 96.9744 706.282 63.0547 706.282C29.1351 706.282 1.60938 678.985 1.60938 645.292C1.60938 611.599 29.1249 584.301 63.0547 584.301ZM63.0547 620.824C49.4177 620.824 38.381 631.79 38.3809 645.301C38.3809 658.813 49.4176 669.779 63.0547 669.779C76.6918 669.779 87.7295 658.813 87.7295 645.301C87.7294 631.79 76.6918 620.824 63.0547 620.824ZM38.4902 476.069V510.67H120.268V547.293H38.4902V581.892H1.85938V547.293H1.76953V510.67H1.85938V476.069H38.4902ZM119.409 359.504V393.915H119.549V432.722H1.5V393.915H82.7783V359.504H119.409ZM40.4795 298.989L71.5273 307.04V290.937L40.4795 298.989ZM40.4795 104.491L71.5273 112.542V96.4391L40.4795 104.491ZM30.5312 3.33163L34.6846 15.3062L45.1016 7.85214L46.334 6.97031L47.2031 8.21249L57.0859 22.3336L57.9365 23.5494L56.7305 24.4137L46.5684 31.69L57.1416 39.9664L58.332 40.899L57.3906 42.0816L46.6592 55.565L45.7363 56.7232L44.5664 55.816L34.54 48.0426L30.6367 59.775L30.1611 61.2066L28.7314 60.7213L12.4102 55.1832L10.998 54.7037L11.4688 53.2887L15.2549 41.9088H1.88867V21.6744H15.4766L11.4248 9.99277L10.9346 8.5787L12.3486 8.08554L28.6201 2.40683L30.0391 1.91171L30.5312 3.33163ZM119.559 354.939L117.682 354.452L3.02246 324.702L1.89941 324.411V273.577L3.02246 273.286L117.682 243.536L119.559 243.048V278.472L118.436 278.764L101.689 283.113V314.874L118.436 319.223L119.559 319.515V354.939ZM119.409 225.869L118.286 226.161L3.62598 255.911L1.75 256.397V220.973L2.87305 220.681L77.3369 201.355L2.87305 182.039L1.75 181.748V146.324L3.62598 146.81L118.285 176.55L119.409 176.841V225.869ZM119.559 160.441L117.682 159.954L3.02246 130.204L1.89941 129.912V79.0787L3.02246 78.7877L117.682 49.0377L119.559 48.5504V83.9742L118.436 84.2662L101.689 88.6148V120.376L118.436 124.725L119.559 125.017V160.441Z" stroke="#EC532C" stroke-width="3"/>
</svg>
