<svg width="240" height="236" viewBox="0 0 240 236" fill="none" xmlns="http://www.w3.org/2000/svg">
<path d="M240 0H0V236H240V0Z" fill="#ED522D"/>
<path d="M77.4081 116.323H62.4981V97.9518H49.9981V116.323H35.0781V67.0514H49.9881V85.152H62.4881V67.0514H77.3981V116.323H77.4081Z" fill="white"/>
<path d="M108.575 66.1882C110.745 66.1882 112.865 66.4291 114.945 66.9009C117.025 67.3728 118.985 68.0755 120.825 69.0192C122.665 69.9528 124.365 71.1274 125.905 72.5229C127.455 73.9183 128.795 75.5547 129.925 77.4119C131.055 79.2692 131.925 81.3573 132.555 83.6663C133.175 85.9753 133.485 88.5052 133.485 91.2559C133.485 94.1472 133.165 96.7874 132.535 99.1968C131.905 101.596 131.025 103.765 129.895 105.682C128.765 107.6 127.405 109.286 125.825 110.722C124.245 112.167 122.495 113.372 120.585 114.326C118.675 115.29 116.635 116.002 114.465 116.474C112.295 116.946 110.055 117.187 107.755 117.187C105.585 117.187 103.465 116.946 101.385 116.474C99.3047 116.002 97.3447 115.3 95.4847 114.356C93.6347 113.422 91.9347 112.258 90.3847 110.852C88.8347 109.457 87.5047 107.82 86.3847 105.963C85.2647 104.106 84.3947 102.018 83.7547 99.7088C83.1247 97.3998 82.8047 94.87 82.8047 92.1192C82.8047 89.2581 83.1247 86.6178 83.7547 84.2184C84.3847 81.8191 85.2747 79.6507 86.4147 77.7332C87.5547 75.8157 88.9147 74.1291 90.4947 72.6935C92.0747 71.2479 93.8247 70.0432 95.7347 69.0895C97.6447 68.1357 99.6847 67.4029 101.855 66.921C104.025 66.4391 106.275 66.1882 108.575 66.1882ZM108.035 79.2591C106.765 79.2591 105.535 79.5101 104.345 80.002C103.145 80.504 102.085 81.2569 101.155 82.2709C100.225 83.2848 99.4847 84.5698 98.9347 86.1058C98.3847 87.6418 98.1047 89.4488 98.1047 91.5269C98.1047 93.7255 98.3847 95.6129 98.9547 97.199C99.5147 98.7852 100.275 100.08 101.205 101.104C102.145 102.118 103.225 102.881 104.455 103.373C105.685 103.875 106.965 104.116 108.305 104.116C109.565 104.116 110.805 103.865 111.995 103.373C113.195 102.881 114.255 102.118 115.185 101.084C116.115 100.06 116.855 98.7752 117.405 97.2392C117.955 95.7032 118.235 93.8962 118.235 91.8181C118.235 89.6496 117.955 87.7723 117.385 86.1861C116.825 84.5999 116.065 83.3049 115.135 82.2809C114.195 81.2669 113.115 80.504 111.885 80.012C110.645 79.5101 109.365 79.2591 108.035 79.2591Z" fill="white"/>
<path d="M173.27 79.8111H161.75V116.323H146.84V79.8111H135.32V67.0514H173.27V79.8111Z" fill="white"/>
<path d="M49.9881 159.452H64.0181V172.241H35.0781V122.979H49.9881V159.452Z" fill="white"/>
<path d="M100.765 122.98C103.725 131.091 106.375 139.303 108.705 147.616C111.035 155.928 112.875 164.14 114.235 172.252H98.885C98.705 171.007 98.515 169.752 98.325 168.487C98.135 167.232 97.925 165.977 97.695 164.722H84.725C84.495 166.017 84.285 167.282 84.095 168.517C83.905 169.752 83.715 170.997 83.535 172.242H68.625C69.975 164.13 71.825 155.918 74.165 147.606C76.505 139.293 79.145 131.081 82.105 122.97H100.765V122.98ZM95.215 152.866C94.645 150.437 94.025 148.007 93.345 145.588C92.665 143.158 91.965 140.759 91.235 138.38C90.465 140.759 89.745 143.168 89.065 145.588C88.385 148.017 87.765 150.437 87.195 152.866H95.215Z" fill="white"/>
<path d="M154.787 122.979C153.497 131.091 151.707 139.303 149.427 147.615C147.147 155.928 144.557 164.14 141.657 172.252H123.327C120.437 164.14 117.857 155.928 115.577 147.615C113.297 139.303 111.517 131.091 110.227 122.979H125.577C125.957 125.68 126.397 128.431 126.897 131.212C127.397 134.002 127.947 136.803 128.557 139.624C129.167 142.445 129.817 145.266 130.497 148.087C131.187 150.908 131.927 153.699 132.707 156.48C133.477 153.709 134.217 150.908 134.917 148.087C135.617 145.266 136.277 142.445 136.887 139.624C137.497 136.803 138.057 134.002 138.547 131.212C139.047 128.431 139.487 125.68 139.867 122.979H154.787Z" fill="white"/>
<path d="M183.189 122.98C186.149 131.091 188.799 139.303 191.119 147.616C193.449 155.928 195.289 164.14 196.649 172.252H181.299C181.119 171.007 180.929 169.752 180.739 168.487C180.549 167.232 180.339 165.977 180.109 164.722H167.139C166.909 166.017 166.699 167.282 166.509 168.517C166.319 169.752 166.129 170.997 165.949 172.242H151.039C152.389 164.13 154.239 155.918 156.579 147.606C158.919 139.293 161.559 131.081 164.519 122.97H183.189V122.98ZM177.639 152.866C177.069 150.437 176.449 148.007 175.769 145.588C175.089 143.158 174.389 140.759 173.659 138.38C172.889 140.759 172.169 143.168 171.489 145.588C170.809 148.017 170.189 150.437 169.619 152.866H177.639Z" fill="white"/>
<path d="M211.055 130.147L217.335 127.246L220.675 135.217L214.275 138.038L218.835 143.791L212.135 149.172L206.865 142.506L201.595 149.172L194.955 143.851L199.635 138.098L193.055 135.217L196.575 127.246L202.665 130.027L202.605 122.829H211.115L211.055 130.147Z" fill="white"/>
</svg>
